<svg height="512" viewBox="0 0 74 74" width="512" xmlns="http://www.w3.org/2000/svg"><g id="line_color" data-name="line color"><path d="m59.96 41c-.22.45-.46.89-.72 1.33a5.981 5.981 0 0 1 -6.82 2.64 52.622 52.622 0 0 0 -30.84 0 5.981 5.981 0 0 1 -6.82-2.64c-.26-.44-.5-.88-.72-1.33 5.64-2.17 13.84-3.54 22.96-3.54s17.32 1.37 22.96 3.54z" fill="#89c5cd"/><path d="m56.56 39.88c-.25.46-.6 1.08-.81 1.43a5.981 5.981 0 0 1 -6.82 2.64l-.055-.016v.116c1.182.27 2.363.566 3.545.92a5.981 5.981 0 0 0 6.82-2.64c.26-.44.5-.88.72-1.33-1.05-.4-2.19-.78-3.4-1.12z" fill="#6eaaad"/><path d="m61.99 32.66a18.534 18.534 0 0 1 -2.03 8.34c-5.64-2.17-13.84-3.54-22.96-3.54s-17.32 1.37-22.96 3.54a18.534 18.534 0 0 1 -2.03-8.34c0-12.27 12.72-26.66 24.99-26.66s24.99 14.39 24.99 26.66z" fill="#89c5cd"/><path d="m37 6a16.264 16.264 0 0 0 -1.775.107c11.657 1.3 22.65 15.487 22.65 27.185a16.887 16.887 0 0 1 -1.315 6.588c.549.182 2.891.924 3.4 1.12a18.534 18.534 0 0 0 2.03-8.34c0-12.27-12.72-26.66-24.99-26.66z" fill="#6eaaad"/><g fill="#323c6b"><path d="m20.6 72.9a.5.5 0 0 1 -.4-.8c.109-.141 2.647-3.515.578-9.463a29.911 29.911 0 0 1 -.357-17.647.5.5 0 0 1 .963.271 28.891 28.891 0 0 0 .341 17.039c2.259 6.493-.611 10.252-.735 10.409a.5.5 0 0 1 -.39.191z"/><path d="m26.638 67.767a.5.5 0 0 1 -.394-.809c.109-.14 2.656-3.5.586-9.462a29.191 29.191 0 0 1 -1.185-13.769.493.493 0 0 1 .567-.422.5.5 0 0 1 .422.567 28.333 28.333 0 0 0 1.14 13.295c2.26 6.5-.622 10.253-.746 10.409a.5.5 0 0 1 -.39.191z"/><path d="m33.146 70.25a.5.5 0 0 1 -.43-.756c.024-.041 2.388-4.136.6-11.376-1.429-5.808-1.671-10.995-.716-15.418a.5.5 0 1 1 .978.21c-.919 4.272-.68 9.308.712 14.966 1.9 7.673-.605 11.953-.713 12.131a.5.5 0 0 1 -.431.243z"/><path d="m40.755 69.536a.5.5 0 0 1 -.458-.3 29.913 29.913 0 0 1 -.51-20.236 12.526 12.526 0 0 0 .674-6.116.5.5 0 0 1 .987-.157 13.511 13.511 0 0 1 -.717 6.6 29.454 29.454 0 0 0 .483 19.506.5.5 0 0 1 -.458.7z"/><path d="m46.018 74.5a.5.5 0 0 1 -.394-.808c.109-.141 2.654-3.507.583-9.462a29.9 29.9 0 0 1 .511-20.235.5.5 0 0 1 .917.4 29.441 29.441 0 0 0 -.483 19.505c2.261 6.5-.618 10.252-.742 10.409a.5.5 0 0 1 -.392.191z"/><path d="m52.479 70.251a.5.5 0 0 1 -.458-.3 29.85 29.85 0 0 1 -.511-20.236 12.947 12.947 0 0 0 .787-4.639.5.5 0 0 1 .485-.515.51.51 0 0 1 .515.485 13.95 13.95 0 0 1 -.842 5 29.329 29.329 0 0 0 .482 19.5.5.5 0 0 1 -.257.659.5.5 0 0 1 -.201.046z"/><path d="m23.453 8.178a.5.5 0 0 1 -.284-.912 27.346 27.346 0 0 1 9.09-4.166.5.5 0 1 1 .232.973 26.361 26.361 0 0 0 -8.755 4.017.5.5 0 0 1 -.283.088z"/><path d="m35.062 3.611a.5.5 0 0 1 -.051-1c.587-.061 1.169-.1 1.73-.106a.5.5 0 1 1 .018 1c-.532.009-1.085.043-1.645.1z"/><path d="m18.585 64.462a.5.5 0 0 1 -.479-.355c-.048-.16-.1-.322-.159-.488a30.638 30.638 0 0 1 -1.655-8.719.5.5 0 1 1 1-.045 29.645 29.645 0 0 0 1.6 8.437q.094.269.172.528a.5.5 0 0 1 -.479.645z"/><path d="m16.779 52.875h-.017a.5.5 0 0 1 -.483-.516c.01-.323.033-.63.056-.937l.02-.269a.5.5 0 1 1 1 .07l-.02.274c-.022.293-.044.586-.054.895a.5.5 0 0 1 -.502.483z"/><path d="m59.96 41.5a.5.5 0 0 1 -.18-.033c-5.792-2.229-14.095-3.507-22.78-3.507s-16.988 1.278-22.78 3.507a.5.5 0 0 1 -.626-.243 18.96 18.96 0 0 1 -2.084-8.564c0-12.945 13.341-27.16 25.49-27.16s25.49 14.215 25.49 27.16a18.96 18.96 0 0 1 -2.083 8.564.5.5 0 0 1 -.447.276zm-22.96-4.54c8.592 0 16.832 1.241 22.71 3.412a17.881 17.881 0 0 0 1.78-7.711c0-12.47-12.817-26.161-24.49-26.161s-24.49 13.691-24.49 26.16a17.881 17.881 0 0 0 1.78 7.711c5.878-2.171 14.118-3.411 22.71-3.411z"/></g><path d="m35.531 33.541a.65.65 0 0 1 -.011-1.3c.366-.006.733-.011 1.1-.013a.65.65 0 0 1 0 1.3c-.364 0-.725.006-1.085.013z" fill="#fff"/><path d="m20.959 35.189a.65.65 0 0 1 -.152-1.282 56.339 56.339 0 0 1 11.556-1.554.633.633 0 0 1 .683.615.649.649 0 0 1 -.615.683 55.057 55.057 0 0 0 -11.318 1.52.661.661 0 0 1 -.154.018z" fill="#fff"/><path d="m54.093 45.712a6.351 6.351 0 0 1 -1.816-.263 52.38 52.38 0 0 0 -30.554 0 6.52 6.52 0 0 1 -7.394-2.864c-.267-.452-.513-.9-.739-1.366a.5.5 0 0 1 .27-.686c5.903-2.271 14.34-3.573 23.14-3.573s17.237 1.3 23.14 3.573a.5.5 0 0 1 .27.686c-.226.462-.472.914-.738 1.365a6.506 6.506 0 0 1 -5.579 3.128zm-17.093-3.542a54.042 54.042 0 0 1 15.563 2.32 5.51 5.51 0 0 0 6.247-2.416c.158-.267.308-.534.451-.8-5.761-2.11-13.833-3.314-22.261-3.314s-16.5 1.2-22.261 3.312c.143.27.293.537.451.8a5.507 5.507 0 0 0 6.247 2.415 54.033 54.033 0 0 1 15.563-2.317z" fill="#323c6b"/></g></svg>