<svg height="512" viewBox="0 0 74 74" width="512" xmlns="http://www.w3.org/2000/svg"><g id="line_color" data-name="line color"><path d="m50.19 23.58-.09-1.48h.01a13.921 13.921 0 0 1 .08 1.48z" fill="#b6d2dd"/><path d="m50.189 24.08a.5.5 0 0 1 -.5-.47l-.09-1.48a.5.5 0 0 1 .135-.373.527.527 0 0 1 .871.29 14.291 14.291 0 0 1 .083 1.533.5.5 0 0 1 -.485.5z" fill="#323c6b"/><path d="m68.5 45.12.63 4.33a1.141 1.141 0 0 1 -.9 1.26 1.016 1.016 0 0 1 -.24.02 1.162 1.162 0 0 1 -1.15-1.01v-.03a7.292 7.292 0 0 0 -2.31-4.44 33.423 33.423 0 0 0 -10.2-6.23c-.82.1-6.31.89-6.91 4.01a6.719 6.719 0 0 1 -1.2-6.06 29.445 29.445 0 0 0 -3.65-.23c-15.18.21-22.36 5.58-25.76 11.76 6.66 3.41 3.65 13.78 2.43 12.6a14.843 14.843 0 0 1 -2.37-3.77l-4.36-.82-1.23-2.59-4 .55-4.28-.65c2.47-6.83 8-6.9 10.36-6.58a27.6 27.6 0 0 1 5.52-14.23c3.84-5 10.13-9.43 20.26-10.86 2.19-2.46 4.65-6.16 3.34-9.35a11.166 11.166 0 0 1 7.63 9.3h-.01l.09 1.48a13.921 13.921 0 0 0 -.08-1.48c11.52 2.17 20.89 11.87 20.89 18.26a6.188 6.188 0 0 1 -2.5 4.76z" fill="#9297ab"/><path d="m16.81 48.5c6.66 3.41 3.65 13.78 2.43 12.6-.16-.16-.32-.34-.48-.53.6-3.05.68-7.8-3.24-9.99z" fill="#84879c"/><path d="m39.148 22.15c-9.312 1.363-15.181 5.075-19.024 9.371 3.871-3.474 9.34-6.283 17.481-7.386z" fill="#84879c"/><path d="m71 40.36c0-6.39-9.37-16.09-20.89-18.26a13.921 13.921 0 0 1 .08 1.48l-.09-1.48h.01a11.166 11.166 0 0 0 -7.63-9.3 5.3 5.3 0 0 1 .254 3.039 10.763 10.763 0 0 1 5.38 8.265c11.52 2.17 20.886 11.87 20.886 18.26a6.188 6.188 0 0 1 -2.5 4.76l.411 2.823a1.148 1.148 0 0 0 1.076.783 1.016 1.016 0 0 0 .24-.02 1.141 1.141 0 0 0 .9-1.26l-.63-4.33a6.188 6.188 0 0 0 2.503-4.76z" fill="#84879c"/><g fill="#323c6b"><circle cx="66.168" cy="39.972" r=".972"/><path d="m3.677 47.768a.5.5 0 0 1 -.342-.865 11.865 11.865 0 0 1 6.247-3.047.5.5 0 0 1 .168.986 10.884 10.884 0 0 0 -5.731 2.791.5.5 0 0 1 -.342.135z"/><path d="m11.259 42.688a.5.5 0 0 1 -.482-.632c.112-.41.24-.835.378-1.27a.5.5 0 0 1 .953.3c-.134.421-.258.833-.367 1.23a.5.5 0 0 1 -.482.372z"/><path d="m58.583 22.278a.5.5 0 0 1 -.215-.049c-.168-.081-.338-.158-.51-.233a.5.5 0 1 1 .4-.915c.18.08.36.162.537.246a.5.5 0 0 1 -.216.951z"/><path d="m66.931 27.978a.5.5 0 0 1 -.341-.134 33.018 33.018 0 0 0 -5.842-4.334.5.5 0 0 1 .5-.863 34.027 34.027 0 0 1 6.019 4.466.5.5 0 0 1 -.341.866z"/></g><path d="m45.934 34.254a.682.682 0 0 1 -.083 0 28.338 28.338 0 0 0 -3.575-.224c-1.516.021-3 .1-4.4.223a.658.658 0 0 1 -.706-.589.65.65 0 0 1 .589-.706c1.432-.13 2.949-.207 4.507-.228a29.781 29.781 0 0 1 3.748.234.65.65 0 0 1 -.081 1.295z" fill="#fff"/><path d="m33.9 34.778a.65.65 0 0 1 -.12-1.289c.435-.083.422-.084.876-.156a.65.65 0 0 1 .2 1.284c-.44.069-.414.069-.837.149a.639.639 0 0 1 -.119.012z" fill="#fff"/><path d="m19.45 61.693a.8.8 0 0 1 -.558-.233 14.185 14.185 0 0 1 -2.37-3.686l-4.105-.774a.5.5 0 0 1 -.359-.277l-1.072-2.259-3.638.5a.469.469 0 0 1 -.143 0l-4.28-.65a.5.5 0 0 1 -.4-.664c2.438-6.74 7.729-7.2 10.38-6.963a28.265 28.265 0 0 1 5.574-13.982c4.623-6.02 11.487-9.729 20.4-11.024 2.111-2.405 4.31-5.818 3.13-8.691a.5.5 0 0 1 .6-.671c.07.02 6.915 2.053 7.943 9.36 11.64 2.351 20.948 12.072 20.948 18.681a6.539 6.539 0 0 1 -2.466 4.959l.59 4.059a1.64 1.64 0 0 1 -1.292 1.822 1.43 1.43 0 0 1 -.341.03 1.67 1.67 0 0 1 -1.646-1.443 6.772 6.772 0 0 0 -2.151-4.168 32.793 32.793 0 0 0 -9.926-6.087c-1 .135-5.843.927-6.356 3.592a.5.5 0 0 1 -.869.233 7.227 7.227 0 0 1 -1.456-5.957 28.856 28.856 0 0 0 -3.017-.16c-12.45.172-20.885 3.9-25.076 11.066 3.837 2.279 4.063 6.685 3.975 8.524-.1 2.038-.734 4.414-1.719 4.8a.814.814 0 0 1 -.3.063zm-6.6-5.627 4.11.773a.5.5 0 0 1 .365.29 15.127 15.127 0 0 0 2.143 3.5 8.345 8.345 0 0 0 1.012-4.593c-.029-1.916-.575-5.383-3.9-7.086a.5.5 0 0 1 -.21-.686c4.288-7.794 13.1-11.837 26.191-12.019a30.093 30.093 0 0 1 3.719.233.5.5 0 0 1 .415.646 6 6 0 0 0 .586 4.829c1.415-2.609 5.992-3.3 6.986-3.424a.506.506 0 0 1 .242.03 33.828 33.828 0 0 1 10.354 6.325 7.781 7.781 0 0 1 2.47 4.747.666.666 0 0 0 .654.6.8.8 0 0 0 .119-.005.648.648 0 0 0 .524-.716l-.628-4.316a.5.5 0 0 1 .173-.454 5.694 5.694 0 0 0 2.325-4.38c0-6.139-9.085-15.322-19.836-17.638.017.287.026.571.026.858a.5.5 0 0 1 -.485.5.513.513 0 0 1 -.514-.47l-.09-1.48a.5.5 0 0 1 0-.071 10.54 10.54 0 0 0 -6.354-8.429c.6 3.132-1.628 6.487-3.733 8.853a.5.5 0 0 1 -.3.163c-8.737 1.233-15.444 4.823-19.934 10.669a27.188 27.188 0 0 0 -5.418 13.966.5.5 0 0 1 -.185.349.509.509 0 0 1 -.381.106 8.626 8.626 0 0 0 -9.6 5.683l3.593.545 3.929-.54a.5.5 0 0 1 .52.281z" fill="#323c6b"/></g></svg>