<svg id="icon" height="512" viewBox="0 0 128 128" width="512" xmlns="http://www.w3.org/2000/svg"><path d="m82.555 113.732h-4.27v-2h4.27a6.687 6.687 0 0 0 6.68-6.679v-60.824h2v60.824a8.689 8.689 0 0 1 -8.68 8.679z" fill="#2f3a5a"/><path d="m94.624 92.157h-4.642v-2h4.642a6.686 6.686 0 0 0 6.679-6.679v-28.757h2v28.757a8.689 8.689 0 0 1 -8.679 8.679z" fill="#2f3a5a"/><path d="m6.121 1h66.595a5.57 5.57 0 0 1 5.57 5.57v114.861a5.569 5.569 0 0 1 -5.57 5.569h-66.595a5.569 5.569 0 0 1 -5.569-5.569v-114.861a5.57 5.57 0 0 1 5.569-5.57z" fill="#9297ab"/><path d="m72.716 128h-66.594a6.577 6.577 0 0 1 -6.57-6.569v-114.862a6.577 6.577 0 0 1 6.57-6.569h66.594a6.577 6.577 0 0 1 6.569 6.569v114.862a6.577 6.577 0 0 1 -6.569 6.569zm-66.594-126a4.575 4.575 0 0 0 -4.57 4.569v114.862a4.575 4.575 0 0 0 4.57 4.569h66.594a4.575 4.575 0 0 0 4.569-4.569v-114.862a4.575 4.575 0 0 0 -4.569-4.569z" fill="#2f3a5a"/><circle cx="39.419" cy="96.152" fill="#84879c" r="22.392"/><path d="m9.444 9.837h59.949v47.668h-59.949z" fill="#5fc4f8"/><path d="m69.393 9.838v47.667h-59.944v-5.038h54.504v-42.629z" fill="#3dbce9"/><path d="m69.394 58.5h-59.95a1 1 0 0 1 -1-1v-47.663a1 1 0 0 1 1-1h59.95a1 1 0 0 1 1 1v47.663a1 1 0 0 1 -1 1zm-58.949-2h57.949v-45.663h-57.95z" fill="#2f3a5a"/><circle cx="39.419" cy="96.152" fill="#2f3a5a" r="11.238"/><path d="m39.419 108.39a12.238 12.238 0 1 1 12.237-12.238 12.252 12.252 0 0 1 -12.237 12.238zm0-22.476a10.238 10.238 0 1 0 10.237 10.238 10.25 10.25 0 0 0 -10.237-10.238z" fill="#707583"/><g fill="#2f3a5a"><path d="m38.419 76.237h2v4.022h-2z"/><path d="m38.419 112.045h2v4.022h-2z"/><path d="m55.312 95.152h4.022v2h-4.022z"/><path d="m19.504 95.152h4.022v2h-4.022z"/></g><path d="m53.501 82.07-2.844 2.844" fill="#d9e2e9"/><path d="m50.067 82.492h4.023v2h-4.023z" fill="#2f3a5a" transform="matrix(.707 -.707 .707 .707 -43.784 61.279)"/><path d="m28.181 107.39-2.844 2.844" fill="#d9e2e9"/><path d="m24.748 107.812h4.022v2h-4.022z" fill="#2f3a5a" transform="matrix(.707 -.707 .707 .707 -69.104 50.792)"/><path d="m53.501 110.234-2.844-2.844" fill="#d9e2e9"/><path d="m51.079 106.8h2v4.023h-2z" fill="#2f3a5a" transform="matrix(.707 -.707 .707 .707 -61.688 68.695)"/><path d="m28.181 84.914-2.844-2.844" fill="#d9e2e9"/><path d="m25.759 81.481h2v4.022h-2z" fill="#2f3a5a" transform="matrix(.707 -.707 .707 .707 -51.197 43.369)"/><path d="m104.701 18.062h-10.977l-6.47 6.47v19.697h6.575v-9.114h10.872z" fill="#9297ab"/><path d="m93.829 45.229h-6.575a1 1 0 0 1 -1-1v-19.7a1 1 0 0 1 .293-.707l6.471-6.47a1 1 0 0 1 .707-.293h10.975a1 1 0 0 1 1 1v17.056a1 1 0 0 1 -1 1h-9.871v8.114a1 1 0 0 1 -1 1zm-5.575-2h4.575v-8.114a1 1 0 0 1 1-1h9.871v-15.053h-9.561l-5.885 5.884z" fill="#2f3a5a"/><path d="m106.518 15.732a12.982 12.982 0 0 0 -7.294 2.2v17.018a12.982 12.982 0 0 0 7.294 2.2 12.694 12.694 0 0 0 9.058-3.662v-14.095a12.693 12.693 0 0 0 -9.058-3.661z" fill="#d9e2e9"/><path d="m115.573 19.387v14.106a12.7 12.7 0 0 1 -9.053 3.658 12.973 12.973 0 0 1 -7.3-2.2v-1.04a14.07 14.07 0 0 0 3.054.341 12.768 12.768 0 0 0 9.068-3.658v-13.967a12 12 0 0 1 4.231 2.76z" fill="#c1cdd3"/><path d="m106.518 38.149a13.932 13.932 0 0 1 -7.855-2.371 1 1 0 0 1 -.438-.828v-17.02a1 1 0 0 1 .438-.828 13.932 13.932 0 0 1 7.855-2.371 13.754 13.754 0 0 1 9.771 3.959 1 1 0 0 1 .288.7v14.097a1 1 0 0 1 -.288.7 13.754 13.754 0 0 1 -9.771 3.962zm-6.294-3.743a11.982 11.982 0 0 0 6.294 1.743 11.8 11.8 0 0 0 8.059-3.083v-13.252a11.8 11.8 0 0 0 -8.059-3.083 11.982 11.982 0 0 0 -6.294 1.743z" fill="#2f3a5a"/><path d="m116.573 46.622h-10.977l-6.47 6.47v19.697h6.576v-9.114h10.871z" fill="#9297ab"/><path d="m105.7 73.789h-6.574a1 1 0 0 1 -1-1v-19.7a1 1 0 0 1 .293-.707l6.471-6.47a1 1 0 0 1 .707-.293h10.977a1 1 0 0 1 1 1v17.056a1 1 0 0 1 -1 1h-9.874v8.114a1 1 0 0 1 -1 1zm-5.575-2h4.575v-8.114a1 1 0 0 1 1-1h9.872v-15.053h-9.562l-5.885 5.884z" fill="#2f3a5a"/><path d="m118.39 44.292a12.982 12.982 0 0 0 -7.294 2.2v17.018a12.982 12.982 0 0 0 7.294 2.2 12.694 12.694 0 0 0 9.058-3.662v-14.095a12.693 12.693 0 0 0 -9.058-3.661z" fill="#d9e2e9"/><path d="m127.445 47.947v14.106a12.7 12.7 0 0 1 -9.053 3.658 12.973 12.973 0 0 1 -7.3-2.2v-1.039a14.07 14.07 0 0 0 3.054.341 12.768 12.768 0 0 0 9.068-3.658v-13.967a12 12 0 0 1 4.231 2.759z" fill="#c1cdd3"/><path d="m118.391 66.709a13.933 13.933 0 0 1 -7.856-2.371 1 1 0 0 1 -.438-.828v-17.019a1 1 0 0 1 .438-.828 13.931 13.931 0 0 1 7.856-2.371 13.751 13.751 0 0 1 9.77 3.959 1 1 0 0 1 .288.7v14.096a1 1 0 0 1 -.288.7 13.751 13.751 0 0 1 -9.77 3.962zm-6.291-3.743a11.985 11.985 0 0 0 6.295 1.743 11.8 11.8 0 0 0 8.058-3.083v-13.251a11.8 11.8 0 0 0 -8.058-3.083 11.98 11.98 0 0 0 -6.295 1.743z" fill="#2f3a5a"/></svg>