<svg height="512" viewBox="0 0 74 74" width="512" xmlns="http://www.w3.org/2000/svg"><g id="line_color" data-name="line color"><path d="m66.77 57.88c-2.86 1.73-5.73 1-8.44.18-3.27-.99-5.77 3.79-3.44 6.56a5.031 5.031 0 0 0 1.45 1.2c1.27.7 2.97.62 3.31-.79.34-1.37-.7-2.95-2.12-2.23a2.485 2.485 0 0 1 3.64-.72c3.12 2.36 1.19 8.1-3.04 8.86-4.41.62-9.95-3.98-13.3-7.26a12.541 12.541 0 0 0 -7.48-4 4.086 4.086 0 0 0 -.7 0 12.569 12.569 0 0 0 -7.48 4c-3.35 3.28-8.88 7.88-13.3 7.26-4.23-.76-6.15-6.5-3.04-8.86a2.5 2.5 0 0 1 3.65.72c-1.42-.72-2.47.86-2.14 2.23.35 1.41 2.05 1.49 3.33.79a5.314 5.314 0 0 0 1.45-1.2c2.33-2.77-.17-7.55-3.44-6.56-2.72.82-5.58 1.55-8.45-.18-3.73-2.26-4.45-9.91-.17-10.84 3.04-.45 3.93 2.69 3.93 2.69-1.38-1.53-3.12-.37-3.13 1.24-.01 1.93 1.36 2.47 3.04 2.38a5.355 5.355 0 0 0 1.7-.38c2.47-1.02 2.29-5.61-.21-7.11l-.17-.09c-4.99-3.16-3.78-8.33-.13-9.11 2.6-.4 3.35 2.28 3.35 2.28a1.484 1.484 0 0 0 -2.66 1.07c.01 1.68 2.06 1.9 2.56 1.89 3.48-.06 5-3.99 5.65-6.76a12.686 12.686 0 0 0 -1.03-2.29 31.928 31.928 0 0 1 -2.15-10.66 19.19 19.19 0 0 1 38.38 0 31.928 31.928 0 0 1 -2.15 10.66 12.9 12.9 0 0 0 -1.03 2.28v.01c.65 2.77 2.15 6.7 5.64 6.76.51.01 2.57-.21 2.57-1.89a1.484 1.484 0 0 0 -2.66-1.07s.76-2.68 3.35-2.28c3.65.78 4.86 5.95-.13 9.11l-.17.09c-2.5 1.5-2.68 6.09-.22 7.11a5.48 5.48 0 0 0 1.72.38c1.67.09 3.03-.45 3.02-2.38-.01-1.61-1.75-2.77-3.12-1.24 0 0 .89-3.14 3.94-2.69 4.27.93 3.55 8.58-.18 10.84z" fill="#fcd462"/><path d="m56.19 22.19a31.928 31.928 0 0 1 -2.15 10.66 12.279 12.279 0 0 0 -.96 2.1c1.29-3.65.89-7.39.63-10.55-.86-10.57-9.41-19.19-20.01-19.19a19.14 19.14 0 0 0 -8.98 2.23 19.193 19.193 0 0 1 31.47 14.75z" fill="#f7be56"/><path d="m20.55 43.78a.494.494 0 0 1 -.247-.066.5.5 0 0 1 -.187-.682 9.535 9.535 0 0 0 .4-7.73.5.5 0 0 1 .946-.324 10.517 10.517 0 0 1 -.479 8.549.5.5 0 0 1 -.433.253z" fill="#323c6b"/><path d="m53.451 43.78a.5.5 0 0 1 -.435-.252 10.517 10.517 0 0 1 -.479-8.549.5.5 0 0 1 .946.324 9.535 9.535 0 0 0 .4 7.73.5.5 0 0 1 -.187.682.494.494 0 0 1 -.245.065z" fill="#323c6b"/><path d="m24.333 13.65a.65.65 0 0 1 -.527-1.029 14.736 14.736 0 0 1 9.068-6.421.65.65 0 1 1 .347 1.253c-3.32.918-5.635 2.134-8.359 5.924a.649.649 0 0 1 -.529.273z" fill="#fff"/><path d="m22.46 16.65a.651.651 0 0 1 -.594-.914c.125-.281.257-.558.4-.832a.65.65 0 1 1 1.16.587c-.128.253-.251.51-.367.771a.65.65 0 0 1 -.599.388z" fill="#fff"/><ellipse cx="29.877" cy="27.372" fill="#707583" rx="2.369" ry="2.159" transform="matrix(.999 -.043 .043 .999 -1.161 1.324)"/><ellipse cx="44.062" cy="27.607" fill="#707583" rx="2.369" ry="2.159" transform="matrix(.999 -.043 .043 .999 -1.158 1.94)"/><g fill="#323c6b"><path d="m44.653 68.19a.5.5 0 0 1 -.307-.105c-.189-.147-.381-.306-.574-.467a.5.5 0 0 1 .642-.767c.184.153.366.3.546.444a.5.5 0 0 1 -.308.895z"/><path d="m42.727 66.316a.5.5 0 0 1 -.351-.144 10.112 10.112 0 0 0 -4.664-2.9 3.226 3.226 0 0 0 -1.43 0 .5.5 0 1 1 -.221-.976 4.228 4.228 0 0 1 1.867 0 11.066 11.066 0 0 1 5.149 3.168.5.5 0 0 1 -.351.856z"/><path d="m55.994 11.266a.5.5 0 0 1 -.428-.241 21.76 21.76 0 0 0 -6.166-6.579.5.5 0 1 1 .574-.819 22.774 22.774 0 0 1 6.447 6.88.5.5 0 0 1 -.427.759z"/><path d="m46.917 2.851a.5.5 0 0 1 -.223-.053c-.253-.127-.509-.25-.768-.368a.5.5 0 0 1 .415-.91q.4.185.8.384a.5.5 0 0 1 -.224.947z"/><path d="m16.693 71.5a6.439 6.439 0 0 1 -.893-.061 6.281 6.281 0 0 1 -4.839-4.726 4.71 4.71 0 0 1 1.566-5.028 3.024 3.024 0 0 1 2.309-.589 3.426 3.426 0 0 1 2.056 1.425.5.5 0 0 1 -.639.728.835.835 0 0 0 -.958.05 1.663 1.663 0 0 0 -.47 1.617.989.989 0 0 0 .586.714 2.434 2.434 0 0 0 2.018-.246 4.821 4.821 0 0 0 1.31-1.084 3.794 3.794 0 0 0 .115-4.479 2.644 2.644 0 0 0 -3.029-1.279c-2.976.9-5.893 1.555-8.854-.23-2.6-1.574-3.687-5.289-3.24-7.971a4.273 4.273 0 0 1 3.222-3.786 4.08 4.08 0 0 1 4.517 3.042.5.5 0 0 1 -.852.471 1.256 1.256 0 0 0 -1.393-.485 1.488 1.488 0 0 0 -.866 1.393 1.787 1.787 0 0 0 .47 1.375 2.7 2.7 0 0 0 2.043.5 4.827 4.827 0 0 0 1.536-.343 2.636 2.636 0 0 0 1.442-2.408 4.155 4.155 0 0 0 -1.717-3.812l-.146-.077c-2.631-1.665-3.93-4.054-3.508-6.412a4.451 4.451 0 0 1 3.508-3.629 3.515 3.515 0 0 1 3.936 2.634.5.5 0 0 1 -.852.471 1.008 1.008 0 0 0 -1.115-.389 1.18 1.18 0 0 0 -.675 1.119 1.088 1.088 0 0 0 .331.815 2.663 2.663 0 0 0 1.719.579c3-.052 4.451-3.386 5.14-6.235a12.185 12.185 0 0 0 -.944-2.066 32.576 32.576 0 0 1 -2.217-10.908 19.69 19.69 0 0 1 39.38 0 32.582 32.582 0 0 1 -2.181 10.833 13.249 13.249 0 0 0 -.98 2.136c.688 2.851 2.134 6.189 5.13 6.241a2.826 2.826 0 0 0 1.737-.582 1.074 1.074 0 0 0 .324-.809 1.182 1.182 0 0 0 -.675-1.123 1 1 0 0 0 -1.115.389.5.5 0 0 1 -.851-.472 3.521 3.521 0 0 1 3.907-2.638 4.46 4.46 0 0 1 3.536 3.635c.421 2.357-.877 4.747-3.475 6.392l-.2.109a4.159 4.159 0 0 0 -1.695 3.8 2.668 2.668 0 0 0 1.432 2.4 4.938 4.938 0 0 0 1.561.343 2.676 2.676 0 0 0 2.018-.5 1.794 1.794 0 0 0 .47-1.38 1.487 1.487 0 0 0 -.867-1.393 1.238 1.238 0 0 0 -1.38.484.5.5 0 0 1 -.854-.47 4.08 4.08 0 0 1 4.494-3.048 4.272 4.272 0 0 1 3.247 3.788c.447 2.684-.643 6.4-3.241 7.975-2.958 1.79-5.87 1.13-8.844.231a2.648 2.648 0 0 0 -3.029 1.279 3.8 3.8 0 0 0 .117 4.481 4.547 4.547 0 0 0 1.309 1.083 2.433 2.433 0 0 0 2 .246.979.979 0 0 0 .58-.714 1.656 1.656 0 0 0 -.457-1.618.828.828 0 0 0 -.952-.049.5.5 0 0 1 -.648-.713 3.382 3.382 0 0 1 2.011-1.426 2.986 2.986 0 0 1 2.334.565 4.708 4.708 0 0 1 1.591 5.035 6.281 6.281 0 0 1 -4.826 4.73c-4.475.629-9.938-3.674-13.738-7.395-2.371-2.349-4.784-3.646-7.175-3.859a3.583 3.583 0 0 0 -.6 0c-2.406.215-4.819 1.513-7.187 3.858-3.547 3.478-8.549 7.466-12.825 7.466zm-2.332-9.447a2.224 2.224 0 0 0 -1.249.444 3.736 3.736 0 0 0 -1.179 3.983 5.263 5.263 0 0 0 4.024 3.972c4.038.565 9.223-3.562 12.862-7.125 2.535-2.512 5.155-3.906 7.785-4.141a4.546 4.546 0 0 1 .8 0c2.615.232 5.235 1.626 7.773 4.142 5.143 5.035 9.724 7.561 12.878 7.12a5.262 5.262 0 0 0 4.011-3.976 3.732 3.732 0 0 0 -1.2-3.99 2 2 0 0 0 -1.548-.4 1.746 1.746 0 0 0 -.452.161 1.831 1.831 0 0 1 .462.27 2.633 2.633 0 0 1 .8 2.638 1.968 1.968 0 0 1 -1.147 1.392 3.374 3.374 0 0 1 -2.889-.285 5.541 5.541 0 0 1 -1.594-1.318 4.8 4.8 0 0 1 -.184-5.673 3.641 3.641 0 0 1 4.154-1.685c2.853.863 5.426 1.448 8.036-.129 2.206-1.336 3.156-4.651 2.772-6.955a3.358 3.358 0 0 0 -2.44-2.969 2.722 2.722 0 0 0 -2.63 1 1.972 1.972 0 0 1 .9.119 2.469 2.469 0 0 1 1.513 2.322 2.766 2.766 0 0 1 -.78 2.11 3.618 3.618 0 0 1 -2.767.773 6.01 6.01 0 0 1 -1.881-.417 3.634 3.634 0 0 1 -2.05-3.256 5.149 5.149 0 0 1 2.2-4.746l.193-.1c2.208-1.4 3.339-3.408 2.992-5.352a3.469 3.469 0 0 0 -2.732-2.827 2.206 2.206 0 0 0 -2.051.684 1.716 1.716 0 0 1 .654.123 2.168 2.168 0 0 1 1.312 2.058 2.08 2.08 0 0 1 -.624 1.52 3.787 3.787 0 0 1 -2.457.867c-2.916-.05-5.032-2.521-6.117-7.146a.5.5 0 0 1 -.013-.114.556.556 0 0 1 .026-.17 13.376 13.376 0 0 1 1.082-2.377 31.571 31.571 0 0 0 2.084-10.41 18.69 18.69 0 0 0 -37.38 0 31.558 31.558 0 0 0 2.12 10.487 12.459 12.459 0 0 1 1.035 2.306.5.5 0 0 1 .012.272c-1.085 4.624-3.2 7.095-6.128 7.146a3.743 3.743 0 0 1 -2.436-.862 2.094 2.094 0 0 1 -.633-1.525 2.166 2.166 0 0 1 1.311-2.057 1.763 1.763 0 0 1 .645-.123 2.244 2.244 0 0 0 -2.07-.679 3.459 3.459 0 0 0 -2.7 2.822c-.348 1.943.783 3.951 3.025 5.371l.136.07a5.15 5.15 0 0 1 2.223 4.758 3.638 3.638 0 0 1 -2.056 3.256 5.854 5.854 0 0 1 -1.858.417 3.628 3.628 0 0 1 -2.792-.778 2.757 2.757 0 0 1 -.78-2.1 2.471 2.471 0 0 1 1.51-2.322 1.994 1.994 0 0 1 .905-.121 2.749 2.749 0 0 0 -2.642-.99 3.359 3.359 0 0 0 -2.419 2.962c-.384 2.3.566 5.615 2.771 6.951 2.612 1.575 5.191.99 8.046.129a3.636 3.636 0 0 1 4.153 1.685 4.8 4.8 0 0 1 -.186 5.675 5.826 5.826 0 0 1 -1.588 1.314 3.405 3.405 0 0 1 -2.9.287 1.985 1.985 0 0 1 -1.156-1.392 2.646 2.646 0 0 1 .821-2.639 1.849 1.849 0 0 1 .459-.268 1.768 1.768 0 0 0 -.483-.168 1.6 1.6 0 0 0 -.293-.025z"/></g></g></svg>