<svg id="icon" height="512" viewBox="0 0 128 128" width="512" xmlns="http://www.w3.org/2000/svg"><path d="m1 1h126v126h-126z" fill="#f0f5f9"/><path d="m127 128h-126a1 1 0 0 1 -1-1v-126a1 1 0 0 1 1-1h126a1 1 0 0 1 1 1v126a1 1 0 0 1 -1 1zm-125-2h124v-124h-124z" fill="#2f3a5a"/><path d="m9.207 9.063h25.86v25.86h-25.86z" fill="#d9e2e9"/><path d="m35.066 35.923h-25.859a1 1 0 0 1 -1-1v-25.86a1 1 0 0 1 1-1h25.859a1 1 0 0 1 1 1v25.86a1 1 0 0 1 -1 1zm-24.859-2h23.859v-23.86h-23.859z" fill="#2f3a5a"/><path d="m16.318 16.175h11.637v11.637h-11.637z" fill="#84879c"/><path d="m27.955 28.812h-11.637a1 1 0 0 1 -1-1v-11.637a1 1 0 0 1 1-1h11.637a1 1 0 0 1 1 1v11.637a1 1 0 0 1 -1 1zm-10.637-2h9.637v-9.637h-9.637z" fill="#2f3a5a"/><path d="m92.934 9.063h25.86v25.86h-25.86z" fill="#d9e2e9"/><path d="m118.793 35.923h-25.859a1 1 0 0 1 -1-1v-25.86a1 1 0 0 1 1-1h25.859a1 1 0 0 1 1 1v25.86a1 1 0 0 1 -1 1zm-24.859-2h23.859v-23.86h-23.859z" fill="#2f3a5a"/><path d="m100.045 16.175h11.637v11.637h-11.637z" fill="#84879c"/><path d="m111.682 28.812h-11.637a1 1 0 0 1 -1-1v-11.637a1 1 0 0 1 1-1h11.637a1 1 0 0 1 1 1v11.637a1 1 0 0 1 -1 1zm-10.637-2h9.637v-9.637h-9.637z" fill="#2f3a5a"/><path d="m9.207 93.077h25.86v25.86h-25.86z" fill="#d9e2e9"/><path d="m35.066 119.937h-25.859a1 1 0 0 1 -1-1v-25.86a1 1 0 0 1 1-1h25.859a1 1 0 0 1 1 1v25.86a1 1 0 0 1 -1 1zm-24.859-2h23.859v-23.86h-23.859z" fill="#2f3a5a"/><path d="m16.318 100.189h11.637v11.637h-11.637z" fill="#84879c"/><path d="m27.955 112.825h-11.637a1 1 0 0 1 -1-1v-11.637a1 1 0 0 1 1-1h11.637a1 1 0 0 1 1 1v11.637a1 1 0 0 1 -1 1zm-10.637-2h9.637v-9.637h-9.637z" fill="#2f3a5a"/><path d="m92.934 93.077h25.86v25.86h-25.86z" fill="#d9e2e9"/><path d="m118.793 119.937h-25.859a1 1 0 0 1 -1-1v-25.86a1 1 0 0 1 1-1h25.859a1 1 0 0 1 1 1v25.86a1 1 0 0 1 -1 1zm-24.859-2h23.859v-23.86h-23.859z" fill="#2f3a5a"/><path d="m100.045 100.189h11.637v11.637h-11.637z" fill="#84879c"/><path d="m111.682 112.825h-11.637a1 1 0 0 1 -1-1v-11.637a1 1 0 0 1 1-1h11.637a1 1 0 0 1 1 1v11.637a1 1 0 0 1 -1 1zm-10.637-2h9.637v-9.637h-9.637z" fill="#2f3a5a"/><path d="m81.342 9.063h4.932v15.838h-4.932z" fill="#9297ab"/><path d="m86.273 25.9h-4.931a1 1 0 0 1 -1-1v-15.837a1 1 0 0 1 1-1h4.932a1 1 0 0 1 1 1v15.837a1 1 0 0 1 -1.001 1zm-3.932-2h2.932v-13.837h-2.931z" fill="#2f3a5a"/><path d="m76.41 24.901h4.932v15.838h-4.932z" fill="#9297ab"/><path d="m81.342 41.739h-4.932a1 1 0 0 1 -1-1v-15.839a1 1 0 0 1 1-1h4.932a1 1 0 0 1 1 1v15.839a1 1 0 0 1 -1 1zm-3.932-2h2.932v-13.839h-2.932z" fill="#2f3a5a"/><path d="m61.41 25.253h4.932v11.125h-4.932z" fill="#9297ab" transform="matrix(0 1 -1 0 94.692 -33.061)"/><path d="m69.438 34.282h-11.125a1 1 0 0 1 -1-1v-4.932a1 1 0 0 1 1-1h11.125a1 1 0 0 1 1 1v4.932a1 1 0 0 1 -1 1zm-10.125-2h9.125v-2.932h-9.125z" fill="#2f3a5a"/><path d="m108.409 35.286h4.932v15.838h-4.932z" fill="#9297ab" transform="matrix(0 1 -1 0 154.079 -67.669)"/><path d="m118.793 46.671h-15.838a1 1 0 0 1 -1-1v-4.932a1 1 0 0 1 1-1h15.838a1 1 0 0 1 1 1v4.932a1 1 0 0 1 -1 1zm-14.838-2h13.838v-2.932h-13.838z" fill="#2f3a5a"/><path d="m41.311 47.879h4.932v8.482h-4.932z" fill="#9297ab" transform="matrix(0 1 -1 0 95.896 8.343)"/><path d="m48.018 55.585h-8.482a1 1 0 0 1 -1-1v-4.932a1 1 0 0 1 1-1h8.481a1 1 0 0 1 1 1v4.932a1 1 0 0 1 -.999 1zm-7.481-2h6.481v-2.932h-6.482z" fill="#2f3a5a"/><path d="m47.455 64.033h4.932v15.838h-4.932z" fill="#9297ab" transform="matrix(-1 0 0 -1 99.841 143.904)"/><path d="m52.387 80.871h-4.932a1 1 0 0 1 -1-1v-15.838a1 1 0 0 1 1-1h4.932a1 1 0 0 1 1 1v15.838a1 1 0 0 1 -1 1zm-3.932-2h2.932v-13.838h-2.932z" fill="#2f3a5a"/><path d="m19.591 48.171h4.932v15.838h-4.932z" fill="#9297ab" transform="matrix(0 1 -1 0 78.147 34.032)"/><path d="m29.977 59.555h-15.838a1 1 0 0 1 -1-1v-4.931a1 1 0 0 1 1-1h15.838a1 1 0 0 1 1 1v4.932a1 1 0 0 1 -1 .999zm-14.838-2h13.838v-2.931h-13.838z" fill="#2f3a5a"/><path d="m82.836 50.145h4.932v7.919h-4.932z" fill="#9297ab" transform="matrix(0 1 -1 0 139.406 -31.197)"/><path d="m89.261 57.57h-7.919a1 1 0 0 1 -1-1v-4.931a1 1 0 0 1 1-1h7.919a1 1 0 0 1 1 1v4.931a1 1 0 0 1 -1 1zm-6.919-2h5.919v-2.931h-5.919z" fill="#2f3a5a"/><path d="m98.944 64.033h4.932v15.838h-4.932z" fill="#9297ab" transform="matrix(0 1 -1 0 173.362 -29.458)"/><path d="m109.329 75.418h-15.839a1 1 0 0 1 -1-1v-4.932a1 1 0 0 1 1-1h15.839a1 1 0 0 1 1 1v4.932a1 1 0 0 1 -1 1zm-14.839-2h13.839v-2.932h-13.839z" fill="#2f3a5a"/><path d="m93.447 78.586h4.932v10.994h-4.932z" fill="#9297ab" transform="matrix(0 1 -1 0 179.995 -11.83)"/><path d="m101.41 87.548h-10.994a1 1 0 0 1 -1-1v-4.931a1 1 0 0 1 1-1h10.994a1 1 0 0 1 1 1v4.932a1 1 0 0 1 -1 .999zm-9.994-2h8.994v-2.931h-8.994z" fill="#2f3a5a"/><path d="m67.269 70.352h4.932v10.607h-4.932z" fill="#9297ab" transform="matrix(0 1 -1 0 145.39 5.921)"/><path d="m75.038 79.122h-10.607a1 1 0 0 1 -1-1v-4.932a1 1 0 0 1 1-1h10.607a1 1 0 0 1 1 1v4.932a1 1 0 0 1 -1 1zm-9.607-2h8.607v-2.932h-8.607z" fill="#2f3a5a"/><path d="m73.945 108.108h4.932v15.838h-4.932z" fill="#9297ab" transform="matrix(0 1 -1 0 192.437 39.616)"/><path d="m84.329 119.492h-15.838a1 1 0 0 1 -1-1v-4.932a1 1 0 0 1 1-1h15.838a1 1 0 0 1 1 1v4.932a1 1 0 0 1 -1 1zm-14.838-2h13.838v-2.932h-13.838z" fill="#2f3a5a"/><path d="m40.098 96.318v4.931h10.907v14.778h4.931v-14.778-1.06-3.871z" fill="#9297ab"/><path d="m55.937 117.026h-4.937a1 1 0 0 1 -1-1v-13.776h-9.9a1 1 0 0 1 -1-1v-4.932a1 1 0 0 1 1-1h15.837a1 1 0 0 1 1 1v19.708a1 1 0 0 1 -1 1zm-3.932-2h2.932v-17.708h-13.837v2.932h9.9a1 1 0 0 1 1 1z" fill="#2f3a5a"/><path d="m13.852 67.737h4.932v15.838h-4.932z" fill="#9297ab" transform="matrix(0 1 -1 0 91.974 59.338)"/><path d="m24.237 79.122h-15.837a1 1 0 0 1 -1-1v-4.932a1 1 0 0 1 1-1h15.837a1 1 0 0 1 1 1v4.932a1 1 0 0 1 -1 1zm-14.838-2h13.838v-2.932h-13.837z" fill="#2f3a5a"/><path d="m113.862 52.119h4.932v8.902h-4.932z" fill="#9297ab" transform="matrix(-1 0 0 -1 232.655 113.141)"/><path d="m118.793 62.021h-4.932a1 1 0 0 1 -1-1v-8.9a1 1 0 0 1 1-1h4.932a1 1 0 0 1 1 1v8.9a1 1 0 0 1 -1 1zm-3.932-2h2.932v-6.9h-2.932z" fill="#2f3a5a"/><path d="m43.086 29.543h4.932v8.902h-4.932z" fill="#9297ab" transform="matrix(-1 0 0 -1 91.103 67.989)"/><path d="m48.018 39.445h-4.932a1 1 0 0 1 -1-1v-8.9a1 1 0 0 1 1-1h4.932a1 1 0 0 1 1 1v8.9a1 1 0 0 1 -1 1zm-3.932-2h2.932v-6.9h-2.932z" fill="#2f3a5a"/><path d="m43.086 9.063v4.932 8.902h4.931v-8.902h10.907v-4.932z" fill="#9297ab"/><path d="m48.018 23.9h-4.932a1 1 0 0 1 -1-1v-13.837a1 1 0 0 1 1-1h15.838a1 1 0 0 1 1 1v4.937a1 1 0 0 1 -1 1h-9.906v7.9a1 1 0 0 1 -1 1zm-3.932-2h2.932v-7.9a1 1 0 0 1 1-1h9.906v-2.937h-13.838z" fill="#2f3a5a"/><path d="m109.329 61.021h4.932v8.902h-4.932z" fill="#9297ab" transform="matrix(-1 0 0 -1 223.589 130.944)"/><path d="m114.261 70.923h-4.932a1 1 0 0 1 -1-1v-8.9a1 1 0 0 1 1-1h4.932a1 1 0 0 1 1 1v8.9a1 1 0 0 1 -1 1zm-3.932-2h2.932v-6.9h-2.932z" fill="#2f3a5a"/><path d="m9.207 44.067h4.932v8.902h-4.932z" fill="#9297ab" transform="matrix(-1 0 0 -1 23.345 97.036)"/><path d="m14.139 53.969h-4.932a1 1 0 0 1 -1-1v-8.9a1 1 0 0 1 1-1h4.932a1 1 0 0 1 1 1v8.9a1 1 0 0 1 -1 1zm-3.932-2h2.932v-6.9h-2.932z" fill="#2f3a5a"/><path d="m113.862 77.166h4.932v8.902h-4.932z" fill="#9297ab" transform="matrix(-1 0 0 -1 232.655 163.234)"/><path d="m118.793 87.068h-4.932a1 1 0 0 1 -1-1v-8.9a1 1 0 0 1 1-1h4.932a1 1 0 0 1 1 1v8.9a1 1 0 0 1 -1 1zm-3.932-2h2.932v-6.9h-2.932z" fill="#2f3a5a"/><path d="m76.41 56.198h4.932v8.902h-4.932z" fill="#9297ab" transform="matrix(-1 0 0 -1 157.752 121.298)"/><path d="m81.342 66.1h-4.932a1 1 0 0 1 -1-1v-8.9a1 1 0 0 1 1-1h4.932a1 1 0 0 1 1 1v8.9a1 1 0 0 1 -1 1zm-3.932-2h2.932v-6.9h-2.932z" fill="#2f3a5a"/><path d="m75.385 77.166h4.932v8.902h-4.932z" fill="#9297ab" transform="matrix(-1 0 0 -1 155.702 163.234)"/><path d="m80.316 87.068h-4.931a1 1 0 0 1 -1-1v-8.9a1 1 0 0 1 1-1h4.932a1 1 0 0 1 1 1v8.9a1 1 0 0 1 -1.001 1zm-3.932-2h2.932v-6.9h-2.931z" fill="#2f3a5a"/><path d="m80.317 96.799h4.932v8.902h-4.932z" fill="#9297ab" transform="matrix(-1 0 0 -1 165.565 202.499)"/><path d="m85.248 106.7h-4.932a1 1 0 0 1 -1-1v-8.9a1 1 0 0 1 1-1h4.932a1 1 0 0 1 1 1v8.9a1 1 0 0 1 -1 1zm-3.932-2h2.932v-6.9h-2.932z" fill="#2f3a5a"/><path d="m58.924 49.654h4.932v8.902h-4.932z" fill="#9297ab" transform="matrix(-1 0 0 -1 122.779 108.209)"/><g fill="#2f3a5a"><path d="m63.855 59.555h-4.931a1 1 0 0 1 -1-1v-8.9a1 1 0 0 1 1-1h4.932a1 1 0 0 1 1 1v8.9a1 1 0 0 1 -1.001 1zm-3.932-2h2.932v-6.9h-2.931z"/><path d="m100.045 63.037h-7.111a1 1 0 0 1 0-2h7.111a1 1 0 0 1 0 2z"/><path d="m36.85 76.656a1 1 0 0 1 -1-1v-7.21a1 1 0 0 1 2 0v7.21a1 1 0 0 1 -1 1z"/><path d="m63.876 91.163h-5.563a1 1 0 0 1 0-2h5.563a1 1 0 0 1 0 2z"/><path d="m15.487 87.548h-6.28a1 1 0 0 1 0-2h6.28a1 1 0 0 1 0 2z"/><path d="m31.113 45.067h-6.876a1 1 0 0 1 0-2h6.876a1 1 0 0 1 0 2z"/><path d="m69.438 15.972a1 1 0 0 1 -1-1v-5.909a1 1 0 0 1 2 0v5.909a1 1 0 0 1 -1 1z"/><path d="m91.765 46.671h-5.492a1 1 0 0 1 0-2h5.491a1 1 0 0 1 0 2z"/><path d="m65.205 41.739h-7.73a1 1 0 0 1 0-2h7.73a1 1 0 0 1 0 2z"/><path d="m57.475 76.656a1 1 0 0 1 -1-1v-6.17a1 1 0 0 1 2 0v6.169a1 1 0 0 1 -1 1.001z"/><path d="m41.266 117.925a1 1 0 0 1 -1-1v-6.082a1 1 0 0 1 2 0v6.082a1 1 0 0 1 -1 1z"/></g></svg>