<svg id="Layer_1" enable-background="new 0 0 512 512" height="512" viewBox="0 0 512 512" width="512" xmlns="http://www.w3.org/2000/svg"><g><g><path d="m463.303 255.987c23.936-28.974 36.189-57.583 34.862-82.144l-14.979.809c1.099 20.347-9.394 44.647-29.907 69.938-20.985-22.563-47.9-44.173-78.87-63.531-3.029-21.479-7.365-41.973-12.92-61.014 41.5-3.492 76.578 1.747 98.678 16.343l8.266-12.517c-24.544-16.21-62.26-22.669-109.061-18.679-.828.071-1.658.145-2.489.222-3.356-9.9-7.063-19.337-11.109-28.234-22.628-49.77-53.427-77.18-86.721-77.18s-64.093 27.41-86.723 77.18c-4.043 8.893-7.749 18.325-11.104 28.22-10.408-.958-20.537-1.407-30.31-1.328-54.677.442-92.244 17.438-105.781 47.856-12.813 28.791-2.279 65.522 29.644 104.058-16.279 19.642-27.183 39.114-32.058 57.49l14.498 3.847c4.245-16 13.771-32.95 27.565-49.958 20.991 22.58 47.922 44.206 78.912 63.576 3.028 21.471 7.362 41.958 12.913 60.993-5.741.473-11.383.782-16.91.92-46.813 1.167-80.934-9.729-96.13-30.69l-12.145 8.805c17.36 23.946 53.318 36.969 101.69 36.969 2.291 0 4.612-.029 6.959-.088 6.891-.172 13.949-.597 21.147-1.265 3.356 9.901 7.064 19.338 11.109 28.236 22.63 49.77 53.429 77.18 86.723 77.18s64.093-27.41 86.723-77.18c4.043-8.893 7.749-18.324 11.104-28.219 9.628.886 19.016 1.337 28.105 1.337.736 0 1.473-.003 2.205-.009 54.677-.442 92.244-17.438 105.781-47.856 12.817-28.8 2.275-65.542-29.667-104.087zm-19.901.013c-2.462 2.676-5.03 5.358-7.705 8.042-16.5 16.561-36.501 32.624-58.935 47.486 1.836-18.03 2.779-36.625 2.779-55.528 0-18.933-.946-37.558-2.788-55.614 26.055 17.244 48.711 36.086 66.649 55.614zm-141.458 96.378c-14.257 6.343-28.623 12.002-42.923 16.936-14.242-4.925-28.579-10.583-42.858-16.936-20.648-9.186-40.295-19.436-58.55-30.477-2.669-21.173-4.048-43.296-4.048-65.901 0-22.582 1.376-44.683 4.04-65.837 18.205-11.033 37.86-21.332 58.559-30.541 14.329-6.375 28.703-12.023 42.946-16.928 14.234 4.924 28.564 10.578 42.835 16.928 20.648 9.186 40.295 19.435 58.55 30.477 2.669 21.173 4.048 43.296 4.048 65.901 0 22.58-1.376 44.679-4.039 65.831-18.361 11.127-38.05 21.422-58.56 30.547zm55.769-11.494c-2.909 17.365-6.721 33.95-11.382 49.474-20.505-2.618-42.026-7.198-63.984-13.605 8.584-3.314 17.161-6.873 25.694-10.67 17.199-7.652 33.85-16.114 49.672-25.199zm-197.312-169.816c2.908-17.347 6.718-33.917 11.374-49.426 20.499 2.617 42.014 7.196 63.964 13.6-8.561 3.313-17.128 6.873-25.675 10.676-17.263 7.68-33.889 16.109-49.663 25.15zm197.302-.007c-15.744-9.019-32.37-17.45-49.662-25.144-8.514-3.788-17.053-7.336-25.586-10.637 22.092-6.421 43.616-10.979 63.885-13.609 4.651 15.499 8.457 32.056 11.363 49.39zm-171.718-87.673c20.052-44.1 46.002-68.388 73.068-68.388s53.016 24.288 73.068 68.388c3.423 7.529 6.594 15.468 9.505 23.768-26.561 3.598-54.407 10.243-82.586 19.676-28.268-9.459-56.161-16.111-82.555-19.691 2.909-8.295 6.079-16.229 9.5-23.753zm-147.145 74.638c11.004-24.729 43.747-38.564 92.197-38.956.7-.006 1.395-.008 2.099-.008 7.613 0 15.452.333 23.478.987-5.555 19.043-9.891 39.541-12.92 61.022-21.629 13.529-41.359 28.208-58.559 43.642-7.352 6.597-14.132 13.231-20.315 19.865-26.942-33.166-36.17-63.655-25.98-86.552zm35.826 97.931c17.599-19.102 40.305-38.023 66.678-55.492-1.837 18.031-2.78 36.629-2.78 55.535 0 18.933.946 37.557 2.788 55.614-26.072-17.257-48.742-36.114-66.686-55.657zm85.736 84.982c15.744 9.019 32.37 17.45 49.662 25.144 8.527 3.794 17.079 7.347 25.625 10.653-21.911 6.379-43.435 10.965-63.923 13.595-4.651-15.499-8.457-32.057-11.364-49.392zm171.719 87.673c-20.052 44.1-46.002 68.388-73.068 68.388s-53.016-24.288-73.068-68.388c-3.425-7.532-6.597-15.475-9.509-23.78 26.397-3.599 54.333-10.264 82.54-19.682 28.286 9.468 56.196 16.127 82.605 19.709-2.909 8.295-6.079 16.229-9.5 23.753zm147.145-74.638c-11.004 24.729-43.747 38.564-92.197 38.956-.7.006-1.395.008-2.099.008-7.613 0-15.452-.333-23.478-.988 5.56-19.062 9.9-39.58 12.929-61.084 27.606-17.281 52.139-36.4 71.903-56.237 2.396-2.405 4.714-4.812 6.953-7.221 26.949 33.172 36.18 63.666 25.989 86.566z" fill="#aac3d6"/></g><g><path d="m66.48 341.18c0 18.33-14.91 33.24-33.24 33.24-3.63 0-7.12-.58-10.38-1.66-13.26-4.37-22.86-16.87-22.86-31.58 0-14.98 9.96-27.68 23.62-31.82 3.04-.92 6.27-1.42 9.62-1.42 18.33 0 33.24 14.91 33.24 33.24z" fill="#b9f6d3"/><path d="m66.48 341.18c0 18.33-14.91 33.24-33.24 33.24-3.63 0-7.12-.58-10.38-1.66 13.66-4.14 23.62-16.84 23.62-31.82 0-14.71-9.6-27.21-22.86-31.58 3.04-.92 6.27-1.42 9.62-1.42 18.33 0 33.24 14.91 33.24 33.24z" fill="#93d8e4"/><path d="m512 151.43c0 18.33-14.92 33.24-33.25 33.24-3.48 0-6.84-.54-10-1.54-13.46-4.25-23.24-16.85-23.24-31.7s9.78-27.45 23.24-31.7c3.16-1 6.52-1.54 10-1.54 18.33 0 33.25 14.91 33.25 33.24z" fill="#ff6e6e"/><path d="m512 151.43c0 18.33-14.92 33.24-33.25 33.24-3.48 0-6.84-.54-10-1.54 13.46-4.25 23.25-16.85 23.25-31.7s-9.79-27.45-23.25-31.7c3.16-1 6.52-1.54 10-1.54 18.33 0 33.25 14.91 33.25 33.24z" fill="#f44e92"/><path d="m313.37 256c0 29.95-24.36 54.32-54.32 54.32-5.04 0-9.93-.69-14.57-1.98-22.9-6.39-39.75-27.43-39.75-52.34 0-24.96 16.92-46.04 39.89-52.38 4.6-1.26 9.44-1.94 14.43-1.94 29.96 0 54.32 24.37 54.32 54.32z" fill="#4f667a"/><path d="m313.37 256c0 29.95-24.36 54.32-54.32 54.32-5.04 0-9.93-.69-14.57-1.98 22.97-6.34 39.89-27.42 39.89-52.38 0-24.92-16.85-45.96-39.75-52.34 4.6-1.26 9.44-1.94 14.43-1.94 29.96 0 54.32 24.37 54.32 54.32z" fill="#3a5366"/></g></g></svg>