<svg id="Layer_1" enable-background="new 0 0 511.972 511.972" height="512" viewBox="0 0 511.972 511.972" width="512" xmlns="http://www.w3.org/2000/svg"><g><path d="m355.493 306.452-13.12 21.82-23.27 38.7h-126.23l-36.71-60.1 41.32-53.41c3.12-4.04 4.85-9.1 4.85-14.23v-197.2c0-4.15 3.36-7.5 7.5-7.5h92.39c4.15 0 7.5 3.35 7.5 7.5v197.31c0 5.13 1.73 10.19 4.87 14.24z" fill="#e9f5ff"/><path d="m314.593 253.582 40.9 52.87-13.12 21.82-57.78-74.69c-3.14-4.05-4.87-9.11-4.87-14.24v-204.81h22.5c4.15 0 7.5 3.35 7.5 7.5v197.31c0 5.13 1.73 10.19 4.87 14.24z" fill="#cdeaf7"/><path d="m453.453 482.052c-9.05 18.46-27.43 29.92-47.97 29.92h-298.99c-20.54 0-38.92-11.46-47.97-29.92-9.07-18.47-6.89-40.05 5.69-56.33l91.95-118.85 2.4-.94c2.31-.9 4.92-.61 6.97.79 2.05 1.39 3.28 3.71 3.28 6.19 0 13.27 10.79 24.06 24.06 24.06 13.26 0 24.06-10.79 24.06-24.06 0-4.14 3.35-7.5 7.5-7.5 4.14 0 7.5 3.36 7.5 7.5 0 13.27 10.79 24.06 24.05 24.06 13.27 0 24.06-10.79 24.06-24.06 0-4.14 3.36-7.5 7.5-7.5 4.15 0 7.5 3.36 7.5 7.5 0 13.27 10.8 24.06 24.06 24.06 8.85 0 16.6-4.8 20.77-11.94 2.09-3.56 3.29-7.7 3.29-12.12 0-2.33 1.09-4.53 2.94-5.95 1.86-1.42 4.27-1.89 6.52-1.29l2.87.78 92.25 119.23c12.59 16.29 14.78 37.89 5.71 56.37z" fill="#b9f6d3"/><path d="m326.893 24.75c0 13.65-11.1 24.75-24.75 24.75h-92.4c-13.65 0-24.75-11.1-24.75-24.75s11.1-24.75 24.75-24.75h92.4c13.65 0 24.75 11.1 24.75 24.75z" fill="#cdeaf7"/><path d="m326.893 24.75c0 13.65-11.1 24.75-24.75 24.75h-22.49c13.65 0 24.75-11.1 24.75-24.75s-11.1-24.75-24.75-24.75h22.49c13.65 0 24.75 11.1 24.75 24.75z" fill="#afd9e8"/><g fill="#ddfbea"><path d="m164.69 371.17c-11.795 0-21.391 9.596-21.391 21.391s9.596 21.391 21.391 21.391 21.391-9.596 21.391-21.391-9.596-21.391-21.391-21.391z"/><path d="m238.747 421.943c-15.229 0-27.619 12.39-27.619 27.619s12.39 27.619 27.619 27.619 27.619-12.39 27.619-27.619c.001-15.23-12.389-27.619-27.619-27.619z"/><circle cx="333.844" cy="405.914" r="34.744"/></g><path d="m447.743 425.682c12.59 16.29 14.78 37.89 5.71 56.37-9.05 18.46-27.43 29.92-47.97 29.92h-30c20.54 0 38.92-11.46 47.97-29.92 9.07-18.48 6.88-40.08-5.71-56.37l-77.87-100.65c2.09-3.56 3.29-7.7 3.29-12.12 0-2.33 1.09-4.53 2.94-5.95 1.86-1.42 4.27-1.89 6.52-1.29l2.87.78z" fill="#93d8e4"/></g></svg>