<svg id="Layer_1" enable-background="new 0 0 511.988 511.988" height="512" viewBox="0 0 511.988 511.988" width="512" xmlns="http://www.w3.org/2000/svg"><g><g><path d="m86.813 425.175c-2.929-2.929-7.677-2.929-10.607 0l-74.009 74.009c-2.929 2.929-2.929 7.677 0 10.607 2.929 2.929 7.677 2.929 10.607 0l74.009-74.009c2.929-2.93 2.929-7.678 0-10.607z" fill="#cdeaf7"/><path d="m135.736 408.867-32.615-32.615c-2.929-2.929-7.677-2.929-10.607 0l-32.615 32.615c-2.929 2.929-2.929 7.677 0 10.607l32.615 32.615c2.929 2.929 7.677 2.929 10.607 0l32.615-32.615c2.929-2.93 2.929-7.678 0-10.607z" fill="#e9f5ff"/><path d="m457.487 79.897-25.396-25.397c-2.929-2.929-7.677-2.929-10.607 0l-59.058 59.058c-2.929 2.929-2.929 7.677 0 10.607l25.396 25.396c2.929 2.929 7.677 2.929 10.607 0l59.058-59.058c2.93-2.929 2.93-7.677 0-10.606z" fill="#aac3d6"/><path d="m403.792 202.156-93.96-93.96c-2.927-2.927-7.679-2.927-10.607 0l-218.092 218.092c-13.562 13.562-13.556 35.631.007 49.193l55.366 55.366c13.563 13.563 35.631 13.569 49.194.007l218.093-218.093c2.927-2.926 2.927-7.678-.001-10.605z" fill="#e9f5ff"/><g><path d="m403.792 212.762-218.093 218.093c-13.562 13.562-35.631 13.556-49.194-.007l-21.205-21.206c13.584 13.584 35.603 13.583 49.187 0l218.093-218.093c2.927-2.927 2.928-7.679 0-10.607l21.213 21.213c2.927 2.928 2.927 7.68-.001 10.607z" fill="#cdeaf7"/></g><path d="m369.509 167.876-25.396-25.396c-2.929-2.929-7.677-2.929-10.607 0l-59.059 59.059c-2.929 2.929-2.929 7.677 0 10.607l25.396 25.396c2.929 2.929 7.677 2.929 10.607 0l59.059-59.059c2.929-2.93 2.929-7.678 0-10.607z" fill="#aac3d6"/><path d="m245.471 161.95-164.338 164.338c-13.562 13.562-13.556 35.631.007 49.193l55.366 55.366c13.563 13.563 35.631 13.569 49.194.007l164.339-164.339z" fill="#b9f6d3"/><g fill="#4f667a"><g><path d="m241.957 228c-2.927 2.927-7.679 2.927-10.607 0l-25.965-25.965 10.607-10.607 25.965 25.965c2.927 2.928 2.927 7.68 0 10.607z"/><path d="m226.167 270.788c-2.927 2.927-7.679 2.927-10.607 0l-39.464-39.464 10.607-10.607 39.464 39.464c2.927 2.927 2.935 7.672 0 10.607z"/><path d="m183.14 286.818c-2.927 2.927-7.679 2.927-10.607 0l-25.965-25.965 10.607-10.607 25.965 25.965c2.927 2.927 2.934 7.672 0 10.607z"/><path d="m124.874 345.083c-2.927 2.927-7.679 2.927-10.607 0l-25.965-25.965 10.607-10.607 25.965 25.965c2.927 2.928 2.935 7.673 0 10.607z"/><path d="m167.357 329.598c-2.934 2.934-7.679 2.927-10.607 0l-39.464-39.464 10.607-10.607 39.464 39.464c2.927 2.927 2.928 7.679 0 10.607z"/></g><g><path d="m338.753 79.275c-10.897-10.897-28.631-10.897-39.527 0s-10.896 28.631 0 39.527l93.96 93.96c10.897 10.897 28.631 10.897 39.527 0s10.896-28.631 0-39.527z"/><path d="m503.813 68.378-60.204-60.203c-10.904-10.904-28.631-10.896-39.527 0s-10.904 28.624 0 39.527l60.203 60.203c10.904 10.904 28.631 10.896 39.527 0 10.897-10.896 10.904-28.623.001-39.527z"/></g></g></g><g><path d="m350.038 266.516-164.339 164.339c-13.562 13.562-35.631 13.556-49.194-.007l-21.205-21.206c13.584 13.584 35.603 13.583 49.187 0l164.339-164.339z" fill="#93d8e4"/></g><g fill="#3a5366"><path d="m432.713 212.762c-10.897 10.897-28.631 10.896-39.527 0l-20.909-20.909c10.896 10.896 28.631 10.897 39.527 0 10.896-10.896 10.896-28.631 0-39.527l20.909 20.909c10.897 10.897 10.897 28.631 0 39.527z"/><path d="m503.813 107.905c-10.896 10.896-28.624 10.904-39.527 0l-20.909-20.909c10.904 10.904 28.631 10.896 39.527 0 10.897-10.897 10.904-28.624 0-39.527l20.909 20.909c10.903 10.904 10.896 28.631 0 39.527z"/></g></g></svg>