<svg id="Capa_1" enable-background="new 0 0 512 512" height="512" viewBox="0 0 512 512" width="512" xmlns="http://www.w3.org/2000/svg"><g><path d="m200.842 442.403c0-13.065-8.758-24.077-20.72-27.507-4.236-10.136-14.557-17.096-26.398-16.308-13.382.89-24.165 11.922-24.779 25.32-.192 4.186.587 8.17 2.127 11.749 1.148 2.669.973 5.681-.314 8.286-1.992 4.034-2.993 8.646-2.683 13.516.834 13.122 11.424 23.837 24.536 24.812 8.903.662 16.964-3.058 22.254-9.225 1.26-1.469 2.951-2.505 4.819-3.008 12.188-3.282 21.158-14.41 21.158-27.635z" fill="#f8d4a5"/><path d="m318.117 373.965c-13.5-5.4-20.066-20.72-14.665-34.219 5.4-13.501 20.72-20.065 34.219-14.665 7.462 2.985 25.568 7.752 46.109 6.736 14.519-.756 26.882 10.457 27.607 24.977.726 14.522-10.457 26.882-24.977 27.607-24.828 1.241-50.761-3.423-68.293-10.436z" fill="#fbf1cf"/><path d="m112.229 354.34c-12.48-7.457-16.552-23.621-9.094-36.102 7.44-12.451 22.717-14.901 36.015-9.146 11.596 5.018 26.947 4.384 33.889 2.812 13.475-4.643 28.266 2.306 33.247 15.744 5.053 13.633-1.902 28.781-15.534 33.834-16.656 6.172-58.239 4.979-78.523-7.142z" fill="#fbf1cf"/><path d="m176.936 504.29c-10.28-10.281-10.28-26.95 0-37.231l27.598-27.598c10.281-10.281 26.95-10.281 37.231 0 10.279 10.281 10.279 26.95 0 37.231l-27.598 27.598c-10.279 10.279-26.95 10.281-37.231 0z" fill="#fae0bd"/><path d="m297.833 504.29-27.598-27.598c-10.28-10.281-10.28-26.95 0-37.231 10.281-10.281 26.95-10.281 37.231 0l27.598 27.598c10.28 10.281 10.28 26.95 0 37.231-10.279 10.279-26.95 10.281-37.231 0z" fill="#fae0bd"/><path d="m256 479.257c55.414 0 100.336-35.802 100.336-86.462 0-74.471-44.922-114.146-100.336-114.146s-100.336 39.675-100.336 114.146c0 50.66 44.922 86.462 100.336 86.462z" fill="#fbf1cf"/><path d="m256 365.51c36.642 0 67.964-6.226 93.609-18.547-14.516-44.797-50.951-68.313-93.609-68.313s-79.093 23.517-93.609 68.314c25.645 12.32 56.967 18.546 93.609 18.546z" fill="#fae0bd"/><path d="m313.462 209.461-40.716-25.725c13.777-57.862 51.939-122.477 97.057-167.595 21.521-21.521 56.412-21.521 77.933 0 6.335 6.335 10.79 13.833 13.395 21.803-46.127 26.846-132.236 150.987-147.669 171.517z" fill="#fbf1cf"/><path d="m331.012 156.689c36.338-93.658 95.146-125.384 130.119-118.746 6.245 19.105 1.79 40.944-13.395 56.13-33.618 33.618-89.251 59.537-114.738 127.731l-19.536-12.343c3.547-13.781 9.127-31.062 17.55-52.772z" fill="#eda1ab"/><path d="m368.718 88.254c2.372 19.337 11.443 38.049 26.239 50.033-24 20.44-47.698 45.36-61.959 83.517l-19.536-12.343c3.546-13.781 9.127-31.062 17.55-52.772 10.95-28.223 23.942-50.815 37.706-68.435z" fill="#e68a97"/><path d="m198.538 209.461 40.716-25.725c-13.777-57.862-51.939-122.477-97.057-167.595-21.521-21.521-56.412-21.521-77.933 0-6.335 6.335-10.79 13.833-13.395 21.803 46.127 26.846 132.236 150.987 147.669 171.517z" fill="#fbf1cf"/><path d="m180.988 156.689c-36.338-93.658-95.146-125.384-130.119-118.746-6.245 19.105-1.79 40.944 13.395 56.13 33.618 33.618 89.251 59.537 114.738 127.731l19.536-12.343c-3.547-13.781-9.127-31.062-17.55-52.772z" fill="#eda1ab"/><path d="m143.282 88.254c-2.372 19.337-11.443 38.049-26.239 50.033 23.999 20.44 47.698 45.36 61.959 83.517l19.536-12.343c-3.546-13.781-9.127-31.062-17.55-52.772-10.95-28.223-23.942-50.815-37.706-68.435z" fill="#e68a97"/><path d="m394.444 221.804c0-64.574-61.983-116.922-138.444-116.922s-138.444 52.348-138.444 116.922 41.719 112.801 138.444 112.801 138.444-48.227 138.444-112.801z" fill="#fbf1cf"/><g><g fill="#eda1ab"><ellipse cx="169.02" cy="244.427" rx="32.094" ry="25.558"/><ellipse cx="342.979" cy="244.427" rx="32.094" ry="25.558"/></g><g fill="#4e5660"><path d="m187.725 227.324c-4.143 0-7.5-3.357-7.5-7.5v-13.12c0-4.143 3.357-7.5 7.5-7.5s7.5 3.357 7.5 7.5v13.12c0 4.143-3.358 7.5-7.5 7.5z"/><path d="m324.275 227.324c-4.143 0-7.5-3.357-7.5-7.5v-13.12c0-4.143 3.357-7.5 7.5-7.5s7.5 3.357 7.5 7.5v13.12c0 4.143-3.357 7.5-7.5 7.5z"/><path d="m256 257.104c-9.066 0-17.689-3.927-23.654-10.772-2.722-3.123-2.396-7.86.727-10.582 3.122-2.721 7.859-2.395 10.582.727 3.116 3.577 7.616 5.628 12.346 5.628 4.728 0 9.228-2.052 12.347-5.628 2.722-3.124 7.459-3.448 10.581-.726 3.123 2.722 3.447 7.459.726 10.581-5.969 6.846-14.59 10.772-23.655 10.772z"/><path d="m256 219.824c7.515 0 18-6.611 18-13.455 0-5.001-7.235-6.764-18-6.764s-18 1.762-18 6.764c0 6.844 10.485 13.455 18 13.455z"/></g></g><path d="m284.009 80.052c-1.634.477-3.417.059-4.697-1.063-6.226-5.46-14.38-8.773-23.312-8.773-8.931 0-17.084 3.313-23.31 8.771-1.281 1.123-3.065 1.541-4.7 1.064-16.649-4.86-33.975 7.587-33.975 25.556 0 17.987 17.339 30.413 33.977 25.555 1.634-.477 3.417-.059 4.697 1.063 6.226 5.46 14.38 8.773 23.312 8.773 8.931 0 17.084-3.313 23.31-8.771 1.281-1.123 3.065-1.541 4.7-1.064 16.649 4.86 33.975-7.587 33.975-25.556 0-17.987-17.339-30.413-33.977-25.555z" fill="#fae0bd"/></g></svg>