<svg id="icon" height="512" viewBox="0 0 128 128" width="512" xmlns="http://www.w3.org/2000/svg"><path d="m100.936 9.021a14.408 14.408 0 0 0 -19.304-6.521c-7.132 3.527-22.449 18.3-18.92 25.435s24.568 3.918 31.7.389a14.408 14.408 0 0 0 6.524-19.303z" fill="#d9e2e9"/><path d="m94.418 28.329c-7.133 3.525-28.172 6.745-31.711-.389a1.177 1.177 0 0 1 -.125-.305c7.841 1.416 19.9-.93 24.966-3.428a14.434 14.434 0 0 0 4.192-22.707 14.4 14.4 0 0 1 2.678 26.826z" fill="#c1cdd3"/><path d="m74.938 33.192c-6.035 0-11.375-1.283-13.122-4.813-2.221-4.488 1.818-10.722 5.6-15.162 4.154-4.882 9.819-9.659 13.773-11.617a15.408 15.408 0 0 1 13.666 27.62c-4.173 2.066-12.562 3.972-19.917 3.972zm13.073-31.192a13.354 13.354 0 0 0 -5.935 1.4c-3.154 1.555-8.676 5.875-13.14 11.114-4.723 5.547-6.664 10.277-5.327 12.979 3.121 6.3 23.523 3.32 30.36-.064a13.423 13.423 0 0 0 6.07-17.964 13.442 13.442 0 0 0 -12.028-7.465z" fill="#2f3a5a"/><path d="m24.941 9.021a14.408 14.408 0 0 1 19.303-6.521c7.132 3.527 22.45 18.3 18.921 25.435s-24.568 3.918-31.7.389a14.408 14.408 0 0 1 -6.524-19.303z" fill="#d9e2e9"/><path d="m31.458 28.329c7.133 3.525 28.172 6.745 31.711-.389a1.177 1.177 0 0 0 .125-.305c-7.841 1.416-19.9-.93-24.966-3.428a14.434 14.434 0 0 1 -4.191-22.707 14.4 14.4 0 0 0 -2.678 26.826z" fill="#c1cdd3"/><path d="m50.939 33.192c-7.356 0-15.743-1.905-19.918-3.971a15.428 15.428 0 0 1 -6.977-20.643 15.428 15.428 0 0 1 20.644-6.978c7.6 3.761 23.249 18.945 19.374 26.778-1.748 3.531-7.088 4.814-13.123 4.814zm-25.102-23.728a13.424 13.424 0 0 0 6.071 17.964c6.838 3.383 27.24 6.367 30.36.064s-11.629-20.714-18.468-24.098a13.424 13.424 0 0 0 -17.964 6.07z" fill="#2f3a5a"/><circle cx="64.063" cy="24.087" fill="#d9e2e9" r="12.529"/><path d="m64.063 37.616a13.529 13.529 0 1 1 13.53-13.529 13.545 13.545 0 0 1 -13.53 13.529zm0-25.059a11.529 11.529 0 1 0 11.53 11.529 11.542 11.542 0 0 0 -11.53-11.528z" fill="#2f3a5a"/><path d="m11.719 35.031h104.562v91.963h-104.562z" fill="#ef5361"/><path d="m11.719 35.031h104.562v24.462h-104.562z" fill="#da2a47"/><path d="m116.281 127.994h-104.562a1 1 0 0 1 -1-1v-91.963a1 1 0 0 1 1-1h104.562a1 1 0 0 1 1 1v91.963a1 1 0 0 1 -1 1zm-103.562-2h102.562v-89.963h-102.562z" fill="#2f3a5a"/><path d="m6.196 28.931h115.608v20.842h-115.608z" fill="#ef5361"/><path d="m121.8 50.773h-115.6a1 1 0 0 1 -1-1v-20.842a1 1 0 0 1 1-1h115.6a1 1 0 0 1 1 1v20.842a1 1 0 0 1 -1 1zm-114.6-2h113.6v-18.842h-113.6z" fill="#2f3a5a"/><g fill="#e1e6e9"><circle cx="19.185" cy="61.714" r="3.46"/><circle cx="37.111" cy="61.714" r="3.46"/><circle cx="55.037" cy="61.714" r="3.46"/><circle cx="72.963" cy="61.714" r="3.46"/><circle cx="90.889" cy="61.714" r="3.46"/><circle cx="108.815" cy="61.714" r="3.46"/><circle cx="30.19" cy="71.819" r="3.46"/><circle cx="48.116" cy="71.819" r="3.46"/><circle cx="66.043" cy="71.819" r="3.46"/><circle cx="83.969" cy="71.819" r="3.46"/><circle cx="101.895" cy="71.819" r="3.46"/><circle cx="19.185" cy="82.313" r="3.46"/><circle cx="37.111" cy="82.313" r="3.46"/><circle cx="55.037" cy="82.313" r="3.46"/><circle cx="72.963" cy="82.313" r="3.46"/><circle cx="90.889" cy="82.313" r="3.46"/><circle cx="108.815" cy="82.313" r="3.46"/><circle cx="30.19" cy="92.418" r="3.46"/><circle cx="48.116" cy="92.418" r="3.46"/><circle cx="66.043" cy="92.418" r="3.46"/><circle cx="83.969" cy="92.418" r="3.46"/><circle cx="101.895" cy="92.418" r="3.46"/><circle cx="19.185" cy="102.912" r="3.46"/><circle cx="37.111" cy="102.912" r="3.46"/><circle cx="55.037" cy="102.912" r="3.46"/><circle cx="72.963" cy="102.912" r="3.46"/><circle cx="90.889" cy="102.912" r="3.46"/><circle cx="108.815" cy="102.912" r="3.46"/><circle cx="30.19" cy="113.017" r="3.46"/><circle cx="48.116" cy="113.017" r="3.46"/><circle cx="66.043" cy="113.017" r="3.46"/><circle cx="83.969" cy="113.017" r="3.46"/><circle cx="101.895" cy="113.017" r="3.46"/></g><path d="m55.156 28.931h17.688v98.063h-17.688z" fill="#d9e2e9"/><path d="m72.84 28.925v98.075h-17.68v-5.301h12.184v-92.774z" fill="#c1cdd3"/><path d="m73.844 127.994h-19.688v-100.063h19.688zm-17.687-2h15.687v-96.063h-15.688z" fill="#2f3a5a"/></svg>