<svg id="icon" height="512" viewBox="0 0 128 128" width="512" xmlns="http://www.w3.org/2000/svg"><path d="m16.597 1.006h94.804v125.994h-94.804z" fill="#84879c"/><path d="m111.404 1v126h-94.808v-5.729h88.786v-120.271z" fill="#707583"/><path d="m111.4 128h-94.8a1 1 0 0 1 -1-1v-125.994a1 1 0 0 1 1-1h94.8a1 1 0 0 1 1 1v125.994a1 1 0 0 1 -1 1zm-93.8-2h92.8v-123.994h-92.8z" fill="#2f3a5a"/><path d="m27.351 11.017h73.297v25.386h-73.297z" fill="#81dafc"/><path d="m100.65 11.021v25.376h-5.568v-20.365h-67.732v-5.011z" fill="#5fc4f8"/><path d="m100.648 37.4h-73.3a1 1 0 0 1 -1-1v-25.383a1 1 0 0 1 1-1h73.3a1 1 0 0 1 1 1v25.383a1 1 0 0 1 -1 1zm-72.3-2h71.3v-23.383h-71.3z" fill="#2f3a5a"/><path d="m28.033 47.326h11.695v11.695h-11.695z" fill="#d9e2e9"/><path d="m39.728 60.021h-11.694a1 1 0 0 1 -1-1v-11.695a1 1 0 0 1 1-1h11.694a1 1 0 0 1 1 1v11.695a1 1 0 0 1 -1 1zm-10.694-2h9.694v-9.695h-9.694z" fill="#2f3a5a"/><path d="m48.113 47.326h11.695v11.695h-11.695z" fill="#d9e2e9"/><path d="m59.807 60.021h-11.694a1 1 0 0 1 -1-1v-11.695a1 1 0 0 1 1-1h11.694a1 1 0 0 1 1 1v11.695a1 1 0 0 1 -1 1zm-10.694-2h9.694v-9.695h-9.694z" fill="#2f3a5a"/><path d="m68.192 47.326h11.695v11.695h-11.695z" fill="#d9e2e9"/><path d="m79.886 60.021h-11.694a1 1 0 0 1 -1-1v-11.695a1 1 0 0 1 1-1h11.694a1 1 0 0 1 1 1v11.695a1 1 0 0 1 -1 1zm-10.694-2h9.694v-9.695h-9.694z" fill="#2f3a5a"/><path d="m88.271 47.326h11.695v11.695h-11.695z" fill="#d9e2e9"/><path d="m99.966 60.021h-11.695a1 1 0 0 1 -1-1v-11.695a1 1 0 0 1 1-1h11.695a1 1 0 0 1 1 1v11.695a1 1 0 0 1 -1 1zm-10.695-2h9.695v-9.695h-9.695z" fill="#2f3a5a"/><path d="m28.033 65.742h11.695v11.695h-11.695z" fill="#d9e2e9"/><path d="m39.728 78.436h-11.694a1 1 0 0 1 -1-1v-11.694a1 1 0 0 1 1-1h11.694a1 1 0 0 1 1 1v11.694a1 1 0 0 1 -1 1zm-10.694-2h9.694v-9.694h-9.694z" fill="#2f3a5a"/><path d="m48.113 65.742h11.695v11.695h-11.695z" fill="#d9e2e9"/><path d="m59.807 78.436h-11.694a1 1 0 0 1 -1-1v-11.694a1 1 0 0 1 1-1h11.694a1 1 0 0 1 1 1v11.694a1 1 0 0 1 -1 1zm-10.694-2h9.694v-9.694h-9.694z" fill="#2f3a5a"/><path d="m68.192 65.742h11.695v11.695h-11.695z" fill="#d9e2e9"/><path d="m79.886 78.436h-11.694a1 1 0 0 1 -1-1v-11.694a1 1 0 0 1 1-1h11.694a1 1 0 0 1 1 1v11.694a1 1 0 0 1 -1 1zm-10.694-2h9.694v-9.694h-9.694z" fill="#2f3a5a"/><path d="m88.271 65.742h11.695v11.695h-11.695z" fill="#d9e2e9"/><path d="m99.966 78.436h-11.695a1 1 0 0 1 -1-1v-11.694a1 1 0 0 1 1-1h11.695a1 1 0 0 1 1 1v11.694a1 1 0 0 1 -1 1zm-10.695-2h9.695v-9.694h-9.695z" fill="#2f3a5a"/><path d="m28.033 84.157h11.695v11.695h-11.695z" fill="#d9e2e9"/><path d="m39.728 96.852h-11.694a1 1 0 0 1 -1-1v-11.695a1 1 0 0 1 1-1h11.694a1 1 0 0 1 1 1v11.695a1 1 0 0 1 -1 1zm-10.694-2h9.694v-9.695h-9.694z" fill="#2f3a5a"/><path d="m48.113 84.157h11.695v11.695h-11.695z" fill="#d9e2e9"/><path d="m59.807 96.852h-11.694a1 1 0 0 1 -1-1v-11.695a1 1 0 0 1 1-1h11.694a1 1 0 0 1 1 1v11.695a1 1 0 0 1 -1 1zm-10.694-2h9.694v-9.695h-9.694z" fill="#2f3a5a"/><path d="m68.192 84.157h11.695v11.695h-11.695z" fill="#d9e2e9"/><path d="m79.886 96.852h-11.694a1 1 0 0 1 -1-1v-11.695a1 1 0 0 1 1-1h11.694a1 1 0 0 1 1 1v11.695a1 1 0 0 1 -1 1zm-10.694-2h9.694v-9.695h-9.694z" fill="#2f3a5a"/><path d="m88.271 84.157v18.416 1.488 10.206h11.695v-10.206-1.488-18.416z" fill="#d9e2e9"/><path d="m99.965 115.268h-11.694a1 1 0 0 1 -1-1v-30.111a1 1 0 0 1 1-1h11.694a1 1 0 0 1 1 1v30.11a1 1 0 0 1 -1 1.001zm-10.694-2h9.694v-28.111h-9.694z" fill="#2f3a5a"/><path d="m28.033 102.573h11.695v11.694h-11.695z" fill="#d9e2e9"/><path d="m39.728 115.268h-11.694a1 1 0 0 1 -1-1v-11.695a1 1 0 0 1 1-1h11.694a1 1 0 0 1 1 1v11.695a1 1 0 0 1 -1 1zm-10.694-2h9.694v-9.695h-9.694z" fill="#2f3a5a"/><path d="m48.113 102.573h11.694v11.694h-11.694z" fill="#d9e2e9"/><path d="m59.807 115.268h-11.694a1 1 0 0 1 -1-1v-11.695a1 1 0 0 1 1-1h11.694a1 1 0 0 1 1 1v11.695a1 1 0 0 1 -1 1zm-10.694-2h9.694v-9.695h-9.694z" fill="#2f3a5a"/><path d="m68.192 102.573h11.695v11.694h-11.695z" fill="#d9e2e9"/><path d="m79.886 115.268h-11.694a1 1 0 0 1 -1-1v-11.695a1 1 0 0 1 1-1h11.694a1 1 0 0 1 1 1v11.695a1 1 0 0 1 -1 1zm-10.694-2h9.694v-9.695h-9.694z" fill="#2f3a5a"/></svg>