<svg id="icon" height="512" viewBox="0 0 128 128" width="512" xmlns="http://www.w3.org/2000/svg"><rect fill="#d9e2e9" height="119.108" rx="4.886" width="119.108" x="4.446" y="1"/><path d="m118.668 121.108h-109.336a5.892 5.892 0 0 1 -5.886-5.886v-109.336a5.892 5.892 0 0 1 5.886-5.886h109.336a5.892 5.892 0 0 1 5.886 5.886v109.337a5.892 5.892 0 0 1 -5.886 5.885zm-109.336-119.108a3.89 3.89 0 0 0 -3.886 3.886v109.337a3.89 3.89 0 0 0 3.886 3.886h109.336a3.89 3.89 0 0 0 3.886-3.886v-109.337a3.89 3.89 0 0 0 -3.886-3.886z" fill="#2f3a5a"/><rect fill="#d9e2e9" height="99.142" rx="2.147" width="99.142" x="14.429" y="10.983"/><path d="m113.565 13.131v3.082h-91.745a2.146 2.146 0 0 0 -2.146 2.146v91.77h-3.095a2.146 2.146 0 0 1 -2.146-2.146v-94.852a2.146 2.146 0 0 1 2.146-2.146h94.84a2.146 2.146 0 0 1 2.146 2.146z" fill="#f0f5f9"/><path d="m111.424 111.125h-94.848a3.15 3.15 0 0 1 -3.147-3.146v-94.849a3.15 3.15 0 0 1 3.147-3.147h94.848a3.15 3.15 0 0 1 3.147 3.147v94.849a3.15 3.15 0 0 1 -3.147 3.146zm-94.848-99.142a1.148 1.148 0 0 0 -1.147 1.147v94.849a1.148 1.148 0 0 0 1.147 1.146h94.848a1.148 1.148 0 0 0 1.147-1.146v-94.849a1.148 1.148 0 0 0 -1.147-1.147z" fill="#2f3a5a"/><rect fill="#d9e2e9" height="20.936" rx="2.897" width="8.412" x="108.279" y="22.596"/><path d="m113.793 44.533h-2.617a3.9 3.9 0 0 1 -3.9-3.9v-15.139a3.9 3.9 0 0 1 3.9-3.9h2.617a3.9 3.9 0 0 1 3.9 3.9v15.141a3.9 3.9 0 0 1 -3.9 3.898zm-2.617-20.933a1.9 1.9 0 0 0 -1.9 1.9v15.135a1.9 1.9 0 0 0 1.9 1.9h2.617a1.9 1.9 0 0 0 1.9-1.9v-15.141a1.9 1.9 0 0 0 -1.9-1.9z" fill="#2f3a5a"/><path d="m108.279 29.503h8.412v5.969h-8.412z" fill="#d9e2e9"/><path d="m117.69 36.472h-10.412v-7.972h10.412zm-8.412-2h6.412v-3.972h-6.412z" fill="#2f3a5a"/><rect fill="#d9e2e9" height="20.936" rx="2.897" width="8.412" x="108.279" y="76.099"/><path d="m113.793 98.036h-2.617a3.9 3.9 0 0 1 -3.9-3.9v-15.136a3.9 3.9 0 0 1 3.9-3.9h2.617a3.9 3.9 0 0 1 3.9 3.9v15.138a3.9 3.9 0 0 1 -3.9 3.898zm-2.617-20.936a1.9 1.9 0 0 0 -1.9 1.9v15.138a1.9 1.9 0 0 0 1.9 1.9h2.617a1.9 1.9 0 0 0 1.9-1.9v-15.138a1.9 1.9 0 0 0 -1.9-1.9z" fill="#2f3a5a"/><path d="m108.279 83.006h8.412v5.969h-8.412z" fill="#d9e2e9"/><path d="m117.69 89.975h-10.412v-7.969h10.412zm-8.412-2h6.412v-3.969h-6.412z" fill="#2f3a5a"/><circle cx="41.429" cy="43.786" fill="#d9e2e9" r="13.453"/><path d="m41.429 58.239a14.453 14.453 0 1 1 14.453-14.453 14.47 14.47 0 0 1 -14.453 14.453zm0-26.906a12.453 12.453 0 1 0 12.453 12.453 12.467 12.467 0 0 0 -12.453-12.453z" fill="#2f3a5a"/><path d="m77.439 40.019-35.9-1.284a5.055 5.055 0 1 0 0 10.1l35.9-1.284a3.77 3.77 0 0 0 0-7.535z" fill="#d9e2e9"/><path d="m41.357 49.841a6.055 6.055 0 0 1 -4.2-10.412 6.066 6.066 0 0 1 4.42-1.694l35.9 1.284a4.77 4.77 0 0 1 0 9.535l-35.9 1.284c-.072.002-.146.003-.22.003zm0-10.11a4.055 4.055 0 1 0 .149 8.107l35.9-1.284a2.77 2.77 0 0 0 0-5.537l-35.9-1.284z" fill="#2f3a5a"/><circle cx="65.391" cy="82.005" fill="#84879c" r="13.411"/><path d="m65.391 96.417a14.411 14.411 0 1 1 14.409-14.412 14.428 14.428 0 0 1 -14.409 14.412zm0-26.823a12.411 12.411 0 1 0 12.409 12.411 12.425 12.425 0 0 0 -12.409-12.411z" fill="#2f3a5a"/><path d="m69.243 79.357a3.852 3.852 0 1 0 -5.77 3.338l-.753 5.811h5.342l-.754-5.806a3.848 3.848 0 0 0 1.935-3.343z" fill="#2f3a5a"/><path d="m103.251 120.108v3.922a2.97 2.97 0 0 0 2.97 2.97h8.341a2.97 2.97 0 0 0 2.97-2.97v-3.922z" fill="#d9e2e9"/><path d="m114.562 128h-8.341a3.975 3.975 0 0 1 -3.97-3.97v-4.922h16.281v4.922a3.974 3.974 0 0 1 -3.97 3.97zm-10.311-6.892v2.922a1.972 1.972 0 0 0 1.97 1.97h8.341a1.972 1.972 0 0 0 1.97-1.97v-2.922z" fill="#2f3a5a"/><path d="m10.469 120.108v3.922a2.97 2.97 0 0 0 2.97 2.97h8.341a2.97 2.97 0 0 0 2.97-2.97v-3.922z" fill="#d9e2e9"/><path d="m21.78 128h-8.342a3.974 3.974 0 0 1 -3.97-3.97v-4.922h16.282v4.922a3.974 3.974 0 0 1 -3.97 3.97zm-10.311-6.892v2.922a1.972 1.972 0 0 0 1.97 1.97h8.341a1.972 1.972 0 0 0 1.97-1.97v-2.922z" fill="#2f3a5a"/></svg>