<svg id="Capa_1" enable-background="new 0 0 497 497" height="512" viewBox="0 0 497 497" width="512" xmlns="http://www.w3.org/2000/svg"><g><path d="m416.626 185.029c4.944-18.45-6.005-37.413-24.455-42.357 4.944-18.45-6.005-37.414-24.455-42.357-9.658-2.588-16.097-2.752-20.753.32-3.108 17.485 2.627 39.74 20.099 44.421-4.944 18.45 6.005 37.413 24.455 42.357-4.943 18.449 20.444 85.631 25.988 85.279 5.374-.341 48.694-17.073 56.542-31.204-11.698-17.509-43.048-52.608-57.421-56.459z" fill="#5f6c75"/><path d="m399.516 190.413c-18.45-4.944-29.398-23.907-24.455-42.357-17.472-4.681-31.207-29.936-28.099-47.421-4.239 2.796-7 8.272-9.356 17.064-4.944 18.45 6.005 37.413 24.455 42.357-4.944 18.45 6.005 37.413 24.455 42.357-4.943 18.449 20.444 85.631 25.988 85.279 7.635-.484 61.682-30.293 65.919-36.664.68-1.022-1.06-4.575-4.377-9.54-17.808 10.998-46.169 25.863-51.542 26.204-5.544.351-27.931-58.83-22.988-77.279z" fill="#4e5a61"/><path d="m106.484 189.413c18.45-4.944 29.398-23.907 24.455-42.357 13.951-3.738 24.606-22.494 26.352-35.98-4.848-12.697-12.023-15.043-28.006-10.76-18.45 4.943-29.398 23.907-24.455 42.357-18.45 4.943-29.398 23.907-24.455 42.357-13.572 3.637-42.28 35.133-55.288 53.375 16.937 11.051 52.512 31.914 58.409 32.288 5.544.35 27.932-62.831 22.988-81.28z" fill="#5f6c75"/><path d="m159.394 117.699c-.661-2.466-1.355-4.664-2.103-6.624-1.745 13.487-16.401 31.242-30.352 34.98 4.944 18.45-6.005 37.413-24.455 42.357 4.943 18.449-15.444 79.631-20.988 79.279-5.897-.374-39.472-18.237-56.409-29.288-4.675 6.556-7.323 11.401-6.51 12.624 4.237 6.37 58.283 36.18 65.919 36.664 5.544.352 30.931-66.83 25.988-85.279 18.45-4.944 29.398-23.907 24.455-42.357 18.449-4.943 29.398-23.907 24.455-42.356z" fill="#4e5a61"/><path d="m361.337 309.83c5.631 5.631 17.78 3.268 24.718.435 2.833-6.938 1.436-15.198-4.195-20.829-1.322-1.322-5.09-5.09-10.388-10.388l-26.634 16.634c5.578 5.578 15.42 13.069 16.499 14.148z" fill="#e0bba4"/><path d="m365.226 306.071c-1.079-1.079-6.67-6.67-14.404-14.405l-6.483 14.517c3.897 3.898 7.756 7.756 10.388 10.388 7.493 7.493 19.641 7.493 27.134 0 1.862-1.862 3.259-4.011 4.195-6.305-6.939 2.833-15.199 1.436-20.83-4.195z" fill="#cf9875"/><path d="m154.459 297.98-28.931-18.931c-5.297 5.297-9.066 9.066-10.388 10.388-.734.734-1.374 1.523-1.964 2.337.936 2.256 2.315 9.991 4.149 11.825 7.493 7.493 29.641 1.874 37.134-5.619z" fill="#e0bba4"/><path d="m117.325 297.98c-1.834-1.834-3.213-3.95-4.149-6.206-5.435 7.501-4.795 18.037 1.964 24.796 7.493 7.493 19.641 7.493 27.134 0 2.632-2.632 6.49-6.49 10.388-10.388l1.797-8.203h-10c-7.493 7.494-19.641 7.494-27.134.001z" fill="#cf9875"/><path d="m371.472 279.049c-24.723-24.723-82.909-82.909-82.909-82.909h-33.267l-82.06 35.201c-16.938 16.938-36.044 36.044-47.708 47.708l18.931 18.931 105.19-32.246 105.19 29.949z" fill="#f7f9fa"/><path d="m255.296 196.14h-46.859s-16.238 16.238-35.201 35.201l-28.777 66.639 8.203 8.203c7.197-7.197 14.529-14.529 14.529-14.529h162.618s7.332 7.332 14.529 14.529l10.5-10.5c-20.856-20.857-67.668-67.669-99.542-99.543z" fill="#dce6eb"/><path d="m233.5 424.521v53.293c0 10.596-8.59 19.186-19.186 19.186s-19.186-8.59-19.186-19.186 0-60.678 0-60.678z" fill="#4e5a61"/><path d="m263.5 424.521v53.293c0 10.596 8.59 19.186 19.186 19.186s19.186-8.59 19.186-19.186 0-60.678 0-60.678z" fill="#4e5a61"/><path d="m371.472 388.132-52.856-122.398-28.501 6.071 7.255 63.929 30.129 74.582z" fill="#e279b3"/><path d="m290.115 271.805-27.627 4.586-4.31 63.291 17.215 80.251 52.106-9.617z" fill="#bce097"/><path d="m234.513 276.384-15.982 66.537 3.076 77.014 53.786-.002-12.905-143.542z" fill="#e279b3"/><path d="m206.885 271.804-27.873 66.221-9.51 72.289 52.105 9.621 12.906-143.551z" fill="#bce097"/><path d="m196.952 269.05-37.45 63.566-19.03 67.225 29.03 10.473 37.383-138.51z" fill="#e279b3"/><path d="m196.952 269.05c-11.391-3.611-18.568-3.316-18.568-3.316l-52.856 122.398s3.648 6.719 14.944 11.709z" fill="#de5ca3"/><path d="m211.268 212.004-15.743 60.351c12.549 3.979 31.147 8.275 52.975 8.275 40.641 0 70.116-14.896 70.116-14.896l-30.053-69.594z" fill="#5f6c75"/><path d="m217.268 222.004c54.062 8.127 67.696-15.816 71.296-25.864h-80.126l-30.053 69.594s6.325 3.193 17.141 6.621z" fill="#4e5a61"/><path d="m141.899 396.536-16.021 13.943s39.856 33.995 122.622 33.995 121.022-30.197 128.408-43.754l-5.436-12.589c-.001.001-45.153 29.343-122.972 29.343-50.321.001-86.975-12.267-106.601-20.938z" fill="#f7f9fa"/><path d="m376.908 400.721c-7.386 13.557-24.299 19.972-39.537 14.393-9.254 14.407-28.893 18.867-43.865 9.962-11.467 12.849-31.588 14.319-44.94 3.285-13.353 11.035-33.473 9.564-44.94-3.285-14.972 8.905-34.611 4.445-43.865-9.962-8.324 3.048-14.339 1.825-18.251-.127-3.519-1.756-4.98-6.018-3.421-9.629l3.809-8.821c-10.725-4.738-16.37-8.404-16.371-8.404l-10.411 24.11c-.907 2.1-.822 4.509.268 6.52 7.641 14.098 25.213 20.771 41.035 14.977 9.595 14.938 29.959 19.563 45.482 10.329 11.89 13.323 32.753 14.847 46.598 3.406 13.845 11.442 34.708 9.917 46.598-3.406 15.524 9.233 35.887 4.609 45.482-10.329 15.823 5.794 33.394-.879 41.035-14.977 1.09-2.011 1.175-4.42.268-6.52z" fill="#dce6eb"/><path d="m366.317 82.053c-8.058-50.588-50.079-77.28-102.817-81.464l-6.26 4.841-8.74-5.43c-31.878 0-60.833 7.649-82.224 23.222-7.298 6.778-14.896 20.571-17.755 29.11z" fill="#5f6c75"/><path d="m367.716 100.315c0-6.401-.479-12.486-1.399-18.262-22.373-49.768-76.429-62.594-102.817-65.901v-15.563c-4.914-.39-9.919-.589-15-.589v15s-60.232-1.921-93.979 31.332c0 .002-.001.004-.002.005 2.859-8.541 6.826-16.247 11.757-23.115-22.79 16.592-36.992 42.178-36.992 77.093z" fill="#4e5a61"/><path d="m248.5 30s-60.941.01-98.676 38.875c-.352 3.697-5.54 12.507-5.54 16.44 0 67.686 58.375 100.315 124.216 100.315 31.878 0 60.833-12.649 82.224-28.222 10.785-15.022 16.992-34.019 16.992-57.093-28.722-70.315-119.216-70.315-119.216-70.315z" fill="#e0bba4"/><path d="m149.284 80.315c0-3.933.188-7.743.54-11.44-8.246 8.493-15.39 18.831-20.54 31.44 0 67.686 53.375 100.315 119.216 100.315 43.396 0 81.372-14.178 102.224-43.222-21.39 15.573-50.346 23.222-82.224 23.222-65.841 0-119.216-32.629-119.216-100.315z" fill="#cf9875"/><path d="m248.5 168.13c-1.602 0-3.202-.511-4.545-1.534l-17.754-13.524c-3.295-2.51-3.932-7.216-1.421-10.511 2.509-3.294 7.213-3.932 10.511-1.421l13.209 10.062 13.209-10.062c3.295-2.511 8.001-1.874 10.511 1.421 2.511 3.295 1.874 8.001-1.421 10.511l-17.754 13.524c-1.343 1.023-2.943 1.534-4.545 1.534z" fill="#de5ca3"/><path d="m248.5 123.861c-4.143 0-7.5-3.358-7.5-7.5v-20.012c0-4.142 3.357-7.5 7.5-7.5s7.5 3.358 7.5 7.5v20.012c0 4.142-3.357 7.5-7.5 7.5z" fill="#cf9875"/><path d="m195.127 78.16c-2.506 0-4.892.507-7.064 1.424-.917 2.172-5.061 8.196-5.061 10.702 0 10.045 8.143 18.189 18.189 18.189 2.505 0 8.53-4.145 10.702-5.061.916-2.172 1.424-4.559 1.424-7.064-.001-10.046-8.145-18.19-18.19-18.19z" fill="#5f6c75"/><path d="m186.639 86.648c0-2.506.507-4.892 1.424-7.064-6.536 2.758-11.124 9.225-11.124 16.765 0 10.045 8.143 18.189 18.189 18.189 7.54 0 14.007-4.588 16.765-11.124-2.172.916-4.559 1.424-7.064 1.424-10.046-.001-18.19-8.144-18.19-18.19z" fill="#4e5a61"/><path d="m301.873 78.16c-2.505 0-4.892.507-7.064 1.424-.916 2.172-5.061 8.196-5.061 10.702 0 10.045 8.143 18.189 18.189 18.189 2.506 0 8.53-4.145 10.702-5.061.917-2.172 1.424-4.559 1.424-7.064-.001-10.046-8.145-18.19-18.19-18.19z" fill="#5f6c75"/><path d="m293.385 86.648c0-2.506.507-4.892 1.424-7.064-6.536 2.758-11.124 9.225-11.124 16.765 0 10.045 8.143 18.189 18.189 18.189 7.54 0 14.007-4.588 16.765-11.124-2.172.916-4.559 1.424-7.064 1.424-10.047-.001-18.19-8.144-18.19-18.19z" fill="#4e5a61"/></g></svg>