<svg id="Capa_1" enable-background="new 0 0 512 512" height="512" viewBox="0 0 512 512" width="512" xmlns="http://www.w3.org/2000/svg"><g><path d="m174.779 123.75h66.634v360.308h-66.634z" fill="#fff0af" transform="matrix(.707 .707 -.707 .707 275.842 -58.135)"/><path d="m44.213 309.867h360.308v20.613h-360.308z" fill="#ffe07d" transform="matrix(.707 -.707 .707 .707 -160.682 252.428)"/><path d="m104.267 454.85-47.117-47.117c-6.506-6.505-17.053-6.505-23.559 0-6.506 6.506-6.506 17.053 0 23.559l47.117 47.117c6.506 6.505 17.053 6.505 23.559 0 6.505-6.506 6.505-17.054 0-23.559z" fill="#ebb044"/><path d="m85.862 483.562-57.424-57.424c-6.506-6.506-17.053-6.506-23.559 0-6.506 6.506-6.506 17.053 0 23.559l57.424 57.424c6.506 6.506 17.053 6.506 23.559 0 6.505-6.506 6.505-17.054 0-23.559z" fill="#ffd064"/><path d="m363.46 204.491-55.952-55.952c-4.066-4.066-4.066-10.658 0-14.724l73.794-73.794c4.066-4.066 10.658-4.066 14.724 0l55.952 55.952c4.066 4.066 4.066 10.658 0 14.724l-73.794 73.794c-4.066 4.066-10.658 4.066-14.724 0z" fill="#ffd064"/><path d="m451.978 115.973-21.158-21.158c-5.047 21.261-29 44.389-62.489 57.678-16.266 6.454-32.486 9.673-46.963 9.907l42.092 42.092c4.066 4.066 10.658 4.066 14.724 0l73.794-73.794c4.066-4.067 4.066-10.659 0-14.725z" fill="#ffc250"/><path d="m353.521 146.699 11.779 11.779c3.253 3.253 8.527 3.253 11.779 0l28.886-28.886c3.253-3.253 3.253-8.527 0-11.779l-11.779-11.779c-3.253-3.253-8.527-3.253-11.779 0l-28.886 28.886c-3.253 3.253-3.253 8.527 0 11.779z" fill="#ebb044"/><path d="m508.95 31.594-28.543-28.544c-2.923-2.923-7.298-3.84-11.149-2.336l-49.099 19.17c-7.528 2.939-12.676 9.969-13.205 18.034l-2.033 30.997 38.165 38.165 30.999-2.029c8.067-.528 15.099-5.677 18.038-13.207l19.165-49.102c1.502-3.851.585-8.226-2.338-11.148z" fill="#fff0af"/><path d="m504.877 27.52c-8.484 13.633-23.132 26.203-41.854 34.386-20.499 8.959-41.544 10.764-58.06 6.357l-.043.651 38.165 38.165 30.999-2.029c8.067-.528 15.099-5.677 18.038-13.207l19.165-49.102c1.503-3.85.586-8.225-2.337-11.148z" fill="#ffe07d"/><g fill="#ebb044"><g><circle cx="255.213" cy="256.786" r="8.329"/><circle cx="231.655" cy="280.345" r="8.329"/><circle cx="208.096" cy="303.904" r="8.329"/><circle cx="184.538" cy="327.462" r="8.329"/><circle cx="110.248" cy="401.751" r="8.329"/><circle cx="133.868" cy="378.132" r="8.329"/></g><g><circle cx="302.208" cy="209.792" r="8.329"/><circle cx="278.649" cy="233.35" r="8.329"/></g></g></g></svg>