<svg id="Layer_3" enable-background="new 0 0 64 64" height="512" viewBox="0 0 64 64" width="512" xmlns="http://www.w3.org/2000/svg"><g><path d="m8 62v-39l23.427-16.481c.344-.241.803-.241 1.147 0l23.426 16.481v39z" fill="#94c049"/><path d="m31.427 6.519-23.427 16.481v24.741c2.792.98 5.792 1.519 8.919 1.519 14.867 0 26.919-12.052 26.919-26.919 0-3.15-.546-6.172-1.541-8.982-4.721-3.322-9.724-6.841-9.724-6.841-.344-.24-.802-.24-1.146.001z" fill="#a3d350"/><path d="m24 44c0-4.418 3.582-8 8-8 4.418 0 8 3.582 8 8v18h-16z" fill="#ecfa97"/><path d="m52 36h-6v-5c0-1.657 1.343-3 3-3 1.657 0 3 1.343 3 3z" fill="#739937"/><path d="m18 36h-6v-5c0-1.657 1.343-3 3-3 1.657 0 3 1.343 3 3z" fill="#739937"/><circle cx="32" cy="22" fill="#ecfa97" r="10"/><path d="m22 22c0 3.076 1.391 5.825 3.576 7.659 6.142-2.086 10.567-7.888 10.567-14.735 0-.712-.064-1.407-.157-2.093-1.221-.532-2.568-.831-3.986-.831-5.523 0-10 4.477-10 10z" fill="#f0fec5"/><path d="m32 28v-4c0-3.314-2.686-6-6-6v4c0 3.314 2.686 6 6 6z" fill="#668831"/><path d="m26 18v4c0 1.142.325 2.206.879 3.115 1.657-1.367 2.812-3.313 3.179-5.526-1.069-.983-2.491-1.589-4.058-1.589z" fill="#739937"/><path d="m32 28v-4c0-3.314 2.686-6 6-6v4c0 3.314-2.686 6-6 6z" fill="#536d26"/><path d="m5.223 24.862 26.204-18.343c.344-.241.803-.241 1.147 0l26.204 18.343c1.357.95 3.222-.021 3.222-1.678 0-.668-.326-1.295-.874-1.678l-26.832-18.783c-1.377-.964-3.21-.964-4.588 0l-26.832 18.783c-.548.383-.874 1.009-.874 1.678 0 1.657 1.865 2.628 3.223 1.678z" fill="#536d26"/><path d="m32.999 36.069c-.328-.041-.66-.069-.999-.069-.34 0-.672.028-1 .069v12.93h2v-12.93z" fill="#739937"/><path d="m43 49h8v4h-8z" fill="#956346"/><path d="m27 49h10v4h-10z" fill="#956346"/><path d="m13 49h8v4h-8z" fill="#956346"/><g fill="#bf8859"><path d="m7 58v-11c0-1.657 1.343-3 3-3 1.657 0 3 1.343 3 3v11z"/><path d="m21 58v-11c0-1.657 1.343-3 3-3 1.657 0 3 1.343 3 3v11z"/><path d="m37 58v-11c0-1.657 1.343-3 3-3 1.657 0 3 1.343 3 3v11z"/><path d="m51 58v-11c0-1.657 1.343-3 3-3 1.657 0 3 1.343 3 3v11z"/></g><path d="m31 52.999h2v9.001h-2z" fill="#739937"/><g fill="#739937"><path d="m58 58c-.18 0-.352.03-.526.053-.685-1.219-1.976-2.053-3.474-2.053s-2.789.834-3.474 2.053c-.174-.023-.346-.053-.526-.053-1.202 0-2.267.541-3 1.38-.733-.839-1.798-1.38-3-1.38-.18 0-.352.03-.526.053-.685-1.219-1.976-2.053-3.474-2.053s-2.789.834-3.474 2.053c-.174-.023-.346-.053-.526-.053-2.209 0-4 1.791-4 4h14 2 14c0-2.209-1.791-4-4-4z"/><path d="m28 58c-.18 0-.352.03-.526.053-.685-1.219-1.976-2.053-3.474-2.053s-2.789.834-3.474 2.053c-.174-.023-.346-.053-.526-.053-1.202 0-2.267.541-3 1.38-.733-.839-1.798-1.38-3-1.38-.18 0-.352.03-.526.053-.685-1.219-1.976-2.053-3.474-2.053s-2.789.834-3.474 2.053c-.174-.023-.346-.053-.526-.053-2.209 0-4 1.791-4 4h14 2 14c0-2.209-1.791-4-4-4z"/></g></g></svg>