<?xml version="1.0" encoding="iso-8859-1"?>
<!-- Generator: Adobe Illustrator 19.0.0, SVG Export Plug-In . SVG Version: 6.00 Build 0)  -->
<svg version="1.1" id="Capa_1" xmlns="http://www.w3.org/2000/svg" xmlns:xlink="http://www.w3.org/1999/xlink" x="0px" y="0px"
	 viewBox="0 0 480 480" style="enable-background:new 0 0 480 480;" xml:space="preserve">
<g>
	<rect x="310.421" y="421.826" style="fill:#E17277;" width="0" height="116.347"/>
	<path style="fill:#E17277;" d="M240,53.718L58.512,247.306h362.975L240,53.718z M240,210.565c-20.292,0-36.741-16.45-36.741-36.741
		c0-20.292,16.449-36.741,36.741-36.741c20.292,0,36.741,16.45,36.741,36.741C276.741,194.115,260.292,210.565,240,210.565z"/>
	<path style="fill:#E17277;" d="M56.351,249.612l-0.056,0.06v193.587h195.953V284.047h116.347v159.212h55.112V259.553H56.351
		V249.612z M102.221,406.518v-73.482v-12.247v-24.494v-12.247h12.247h85.729h12.247v12.247v24.494v12.247v73.482v12.247h-12.247
		h-85.729h-12.247V406.518z"/>
	<polygon style="fill:#BF515A;" points="421.488,247.306 58.512,247.306 56.351,249.612 56.351,259.553 423.706,259.553 
		423.762,259.553 423.762,249.732 	"/>
	<polygon style="fill:#695A69;" points="468.683,243.927 411.515,182.949 411.515,112.589 374.774,112.589 374.774,143.758 240,0 
		11.317,243.927 38.123,269.055 56.294,249.672 56.351,249.612 58.512,247.306 240,53.718 421.488,247.306 423.762,249.732 
		441.878,269.055 	"/>
	<path style="fill:#695A69;" d="M240,137.083c-20.292,0-36.741,16.45-36.741,36.741c0,20.292,16.449,36.741,36.741,36.741
		c20.292,0,36.741-16.45,36.741-36.741C276.741,153.532,260.292,137.083,240,137.083z M240,198.318
		c-13.528,0-24.494-10.966-24.494-24.494c0-8.845,4.689-16.593,11.717-20.899c3.37-2.066,7.278-3.338,11.466-3.559
		c0.434-0.023,0.872-0.036,1.312-0.036c13.528,0,24.494,10.966,24.494,24.494S253.528,198.318,240,198.318z"/>
	<path style="fill:#95FFFF;" d="M240,149.33c13.527,0,24.494,10.967,24.494,24.494C264.494,160.296,253.528,149.33,240,149.33z"/>
	<path style="fill:#95FFFF;" d="M238.688,149.365c0.434-0.023,0.872-0.036,1.312-0.036
		C239.56,149.33,239.123,149.343,238.688,149.365z"/>
	<path style="fill:#95FFFF;" d="M222.682,156.506c1.363-1.365,2.888-2.568,4.541-3.581c-7.027,4.306-11.717,12.054-11.717,20.899
		c0,13.528,10.966,24.494,24.494,24.494c13.528,0,24.494-10.966,24.494-24.494c0,6.763-2.742,12.887-7.176,17.318L222.682,156.506z"
		/>
	<path style="fill:#6EB1E2;" d="M240,149.33c-0.44,0-0.877,0.013-1.312,0.036c-4.188,0.221-8.095,1.493-11.466,3.559
		c-1.653,1.013-3.177,2.216-4.541,3.581l34.636,34.636c4.434-4.431,7.176-10.555,7.176-17.318
		C264.494,160.297,253.527,149.33,240,149.33z"/>
	<polygon style="fill:#95FFFF;" points="187.95,406.518 114.468,333.035 114.468,406.518 200.197,406.518 	"/>
	<rect x="114.468" y="296.294" style="fill:#6EB1E2;" width="85.729" height="24.494"/>
	<path style="fill:#695A69;" d="M200.197,418.765h12.247v-12.247v-73.482v-12.247v-24.494v-12.247h-12.247h-85.729h-12.247v12.247
		v24.494v12.247v73.482v12.247h12.247H200.197z M114.468,296.294h85.729v24.494h-85.729V296.294z M114.468,333.035h85.729v73.482
		h-85.729V333.035z"/>
	<polygon style="fill:#80D7F0;" points="200.197,406.518 200.197,333.035 114.468,333.035 187.95,406.518 	"/>
	<polygon style="fill:#944851;" points="368.594,480 368.594,443.259 368.594,284.047 252.247,284.047 252.247,443.259 252.247,480 
			"/>
	<polygon style="fill:#BF515A;" points="252.247,443.259 56.294,443.259 56.294,480 252.247,480 252.247,480 	"/>
	<polygon style="fill:#BF515A;" points="368.594,480 368.594,480 423.706,480 423.706,443.259 368.594,443.259 	"/>
</g>
<g>
</g>
<g>
</g>
<g>
</g>
<g>
</g>
<g>
</g>
<g>
</g>
<g>
</g>
<g>
</g>
<g>
</g>
<g>
</g>
<g>
</g>
<g>
</g>
<g>
</g>
<g>
</g>
<g>
</g>
</svg>
