<svg xmlns="http://www.w3.org/2000/svg" viewBox="0 0 512.001 512.001"><path d="M451 246.099V437c0 6.599-4.2 12.299-10.201 14.099l-180 60c-.599.3-.899.3-1.5.601-1.199.3-2.1.3-3.3.3-1.199 0-2.1 0-3.3-.3-.3-.3-.901-.3-1.5-.601l-180-60C65.2 449.299 61 443.599 61 437V246.099c0-8.399 6.599-15 15-15h360c8.401 0 15 6.601 15 15z" fill="rgb(254 68 50)"/><path d="M451 181l-114.373-7.499-86.823-15.176L256 121 316.646 8.294A15 15 0 01334.474.666l166.931 52.056c8.859 2.726 13.15 12.754 9.005 21.045L451 181z" fill="rgb(254 53 35)"/><path d="M61 181l114.375-7.5L211 164.846 256 121 195.354 8.294A15 15 0 00177.526.666L10.596 52.721C1.736 55.447-2.555 65.476 1.59 73.766L61 181z" fill="rgb(252 91 41)"/><path d="M451 246.099V437c0 6.599-4.2 12.299-10.201 14.099l-180 60c-.599.3-.899.3-1.5.601-1.199.3-2.1.3-3.3.3V231.099h180c8.402 0 15.001 6.601 15.001 15z" fill="rgb(254 53 35)"/><path d="M501.403 278l-174.715 55.336a15 15 0 01-16.892-6.016L256 241l29.865-39.189L391 190.231 451 181l58.473 74.343c5.566 8.35 1.522 19.706-8.07 22.657z" fill="rgb(252 91 41)"/><path d="M10.597 278l174.715 54.016A15 15 0 00202.204 326L256 241l-32.515-40.005-97.349-9.184L61 181 2.527 255.343c-5.567 8.35-1.522 19.706 8.07 22.657z" fill="rgb(254 119 65)"/><path fill="rgb(254 68 50)" d="M451 181l-195 60-195-60 195-60z"/><path fill="rgb(254 36 33)" d="M451 181l-195 60V121z"/></svg>