<svg id="Capa_1" enable-background="new 0 0 497 497" height="512" viewBox="0 0 497 497" width="512" xmlns="http://www.w3.org/2000/svg"><g><g><path d="m57.685 418.103-53.291 53.291c-5.858 5.858-5.858 15.355 0 21.213 2.929 2.929 6.768 4.393 10.607 4.393s7.678-1.464 10.606-4.394l53.291-53.291z" fill="#ffb357"/></g><g><path d="m445.787 201.213-93-94-77.523 82.626 15.949 15.949v50.021h50.021c34.046-19.626 68.922-37.849 104.553-54.596z" fill="#ffce71"/><path d="m488.213 158.788-70-70-80-80c-11.715-11.717-30.711-11.717-42.426 0-11.716 11.717-11.716 30.711 0 42.426-16.746 35.631-34.969 70.508-54.596 104.554v50.021h50.021l4.574-4.574c41.421-41.421 108.579-41.421 150 0v-.001l.011.011c5.857 5.851 13.53 8.775 21.203 8.775 7.678 0 15.355-2.928 21.213-8.787 11.716-11.714 11.716-30.709 0-42.425z" fill="#ffb357"/></g><g><g fill="#313d40"><path d="m308.734 109.641c-2.93-2.928-7.678-2.928-10.607 0l-8.485 8.485c-2.929 2.93-2.929 7.678 0 10.607 1.465 1.464 3.385 2.196 5.304 2.196s3.839-.732 5.304-2.196l8.485-8.485c2.927-2.929 2.927-7.677-.001-10.607z"/><path d="m387.05 187.958c-2.93-2.928-7.678-2.928-10.607 0l-8.485 8.485c-2.929 2.93-2.929 7.678 0 10.607 1.465 1.464 3.385 2.196 5.304 2.196s3.839-.732 5.304-2.196l8.485-8.485c2.928-2.93 2.928-7.678-.001-10.607z"/><path d="m345.484 166.496c-4.14.272-8.201-1.231-11.129-4.16-2.928-2.927-4.443-6.983-4.159-11.128.283-4.133-2.837-7.713-6.969-7.996-4.135-.28-7.713 2.837-7.996 6.969-.581 8.473 2.523 16.77 8.518 22.762 5.518 5.519 12.984 8.588 20.746 8.588.67 0 1.343-.023 2.017-.069 4.132-.283 7.252-3.863 6.969-7.996-.285-4.133-3.866-7.232-7.997-6.97z"/></g></g><g><g><path d="m275.264 189.839-180.765 192.662 10 57.464c33.687-38.923 71.645-73.981 113.358-104.21 39.71-28.778 80.896-55.457 123.377-79.946z" fill="#d6948c"/></g><path d="m241.192 155.767c-24.488 42.481-51.167 83.666-79.945 123.376-30.151 41.604-65.105 79.473-103.907 113.095-8.588 7.441-13.19 18.658-11.776 29.932.961 7.665 4.446 14.5 9.606 19.661 4.239 4.239 9.609 7.347 15.639 8.855 12.355 3.089 25.357-1.092 33.691-10.721 0-30.391 12.073-59.536 33.562-81.026l153.152-153.152z" fill="#ce857a"/></g><g fill="#ac6757"><circle cx="258.5" cy="238.5" r="15"/><circle cx="218.5" cy="278.5" r="15"/><circle cx="178.5" cy="318.5" r="15"/></g></g></svg>