<?xml version="1.0" encoding="iso-8859-1"?>
<!-- Generator: Adobe Illustrator 19.0.0, SVG Export Plug-In . SVG Version: 6.00 Build 0)  -->
<svg version="1.1" id="Capa_1" xmlns="http://www.w3.org/2000/svg" xmlns:xlink="http://www.w3.org/1999/xlink" x="0px" y="0px"
	 viewBox="0 0 512.001 512.001" style="enable-background:new 0 0 512.001 512.001;" xml:space="preserve">
<path style="fill:#FEA832;" d="M451,246.099V437c0,6.599-4.2,12.299-10.201,14.099l-180,60c-0.599,0.3-0.899,0.3-1.5,0.601
	c-1.199,0.3-2.1,0.3-3.3,0.3c-1.199,0-2.1,0-3.3-0.3c-0.3-0.3-0.901-0.3-1.5-0.601l-180-60C65.2,449.299,61,443.599,61,437V246.099
	c0-8.399,6.599-15,15-15h360C444.401,231.099,451,237.7,451,246.099z"/>
<path style="fill:#FE9923;" d="M451,181l-114.373-7.499l-86.823-15.176L256,121L316.646,8.294
	c3.279-6.558,10.819-9.785,17.828-7.628l166.931,52.056c8.859,2.726,13.15,12.754,9.005,21.045L451,181z"/>
<path style="fill:#FCBF29;" d="M61,181l114.375-7.5L211,164.846L256,121L195.354,8.294c-3.279-6.558-10.819-9.785-17.828-7.628
	L10.596,52.721C1.736,55.447-2.555,65.476,1.59,73.766L61,181z"/>
<path style="fill:#FE9923;" d="M451,246.099V437c0,6.599-4.2,12.299-10.201,14.099l-180,60c-0.599,0.3-0.899,0.3-1.5,0.601
	c-1.199,0.3-2.1,0.3-3.3,0.3V231.099h180C444.401,231.099,451,237.7,451,246.099z"/>
<path style="fill:#FCBF29;" d="M501.403,278l-174.715,55.336c-6.342,1.951-13.212-0.496-16.892-6.016L256,241l29.865-39.189
	L391,190.231L451,181l58.473,74.343C515.039,263.693,510.995,275.049,501.403,278z"/>
<path style="fill:#FEDB41;" d="M10.597,278l174.715,54.016c6.342,1.951,13.212-0.496,16.892-6.016L256,241l-32.515-40.005
	l-97.349-9.184L61,181L2.527,255.343C-3.04,263.693,1.005,275.049,10.597,278z"/>
<polygon style="fill:#FEA832;" points="451,181 256,241 61,181 256,121 "/>
<polygon style="fill:#FE8821;" points="451,181 256,241 256,121 "/>
<g>
</g>
<g>
</g>
<g>
</g>
<g>
</g>
<g>
</g>
<g>
</g>
<g>
</g>
<g>
</g>
<g>
</g>
<g>
</g>
<g>
</g>
<g>
</g>
<g>
</g>
<g>
</g>
<g>
</g>
</svg>
