<svg id="Capa_1" enable-background="new 0 0 512 512" height="512" viewBox="0 0 512 512" width="512" xmlns="http://www.w3.org/2000/svg"><g><g><g><path d="m457.886 478.699v-259.254l-195.243-161.904c-3.852-3.195-9.433-3.195-13.285 0l-195.244 161.904v259.254z" fill="#f4dd45"/></g><g><path d="m249.357 57.541-195.243 161.904v38.204l191.286-153.818c6.168-4.96 14.976-4.892 21.067.163l152.101 126.228c3.812 3.163 6.017 7.859 6.017 12.813v235.664h33.301v-259.254l-195.243-161.904c-3.853-3.195-9.433-3.195-13.286 0z" fill="#ecc32e"/></g><g><path d="m27.057 489.001v12.697c0 5.69 4.612 10.302 10.302 10.302h437.283c5.69 0 10.302-4.612 10.302-10.302v-12.697c0-5.69-4.612-10.302-10.302-10.302h-437.283c-5.69 0-10.302 4.612-10.302 10.302z" fill="#81a7c6"/></g><g><path d="m455.805 478.699v33.301h18.836c5.69 0 10.302-4.612 10.302-10.302v-12.697c0-5.69-4.612-10.302-10.302-10.302z" fill="#5c90b9"/></g><g><path d="m222.804 249.756h-125.088c-5.69 0-10.302 4.612-10.302 10.302v170.771l75.967 47.87h69.724v-218.641c.001-5.69-4.612-10.302-10.301-10.302z" fill="#c17d4f"/></g><g><path d="m147.772 33.301h-83.252v125.487l83.252-69.038z" fill="#e49542"/></g><g><path d="m147.773 74.328v-15.453h-83.253v15.453h33.9v17.848h-33.9v15.453h83.252v-15.453h-33.9v-17.848z" fill="#e28424"/></g><g><path d="m163.382 478.699-19.757-26.343c-3.285-4.38-8.441-6.958-13.916-6.958h-4.204c-5.618 0-10.89-2.713-14.155-7.285-3.265-4.571-8.537-7.285-14.155-7.285h-9.78v47.87h75.967z" fill="#e2f4f9"/></g><g><path d="m424.589 326.763-12.496 18.811 12.496 29.061h-158.184v-114.576c0-5.687 4.615-10.302 10.302-10.302h137.581c5.686 0 10.302 4.615 10.302 10.302v66.704z" fill="#75cef9"/></g><g><path d="m424.589 326.763-12.496 18.811 12.496 29.061h-24.982v-124.878h14.68c5.686 0 10.302 4.615 10.302 10.302z" fill="#6bbef6"/></g><g><path d="m348.618 374.634 19.757-26.343c3.285-4.38 8.441-6.958 13.916-6.958h4.204c5.618 0 10.89-2.713 14.155-7.285 3.265-4.571 8.537-7.285 14.155-7.285h9.78v47.87h-75.967z" fill="#e2f4f9"/></g><g><path d="m424.585 374.634h-158.179v22.999c0 5.69 4.612 10.302 10.302 10.302h137.575c5.69 0 10.302-4.612 10.302-10.302z" fill="#5c90b9"/></g><g><path d="m424.585 374.634h-24.975v33.301h14.674c5.69 0 10.302-4.612 10.302-10.302v-22.999z" fill="#4a80aa"/></g><g><path d="m157.138 33.301h-101.984c-3.448 0-6.244-2.795-6.244-6.244v-20.813c.001-3.449 2.796-6.244 6.244-6.244h101.984c3.448 0 6.244 2.795 6.244 6.244v20.813c0 3.448-2.795 6.244-6.244 6.244z" fill="#e2f4f9"/></g><g><path d="m157.138 33.301h-18.732v-33.301h18.732c3.448 0 6.244 2.795 6.244 6.244v20.813c0 3.448-2.795 6.244-6.244 6.244z" fill="#b1e4f9"/></g><g><circle cx="256" cy="158.788" fill="#75cef9" r="43.707"/></g></g><g><path d="m249.357 5.509-239.552 198.653c-4.574 3.793-5.049 10.641-1.041 15.029l12.987 14.218c3.746 4.101 10.051 4.537 14.326.992l213.28-176.861c3.852-3.195 9.433-3.195 13.285 0l213.28 176.861c4.275 3.545 10.581 3.108 14.326-.992l12.987-14.218c4.008-4.388 3.534-11.235-1.041-15.029l-239.551-198.653c-3.853-3.195-9.433-3.195-13.286 0z" fill="#e2f4f9"/></g><g><path d="m450.335 213.183 25.588 21.219c4.275 3.545 10.581 3.108 14.326-.992l12.987-14.218c4.008-4.388 3.534-11.235-1.041-15.029l-25.173-20.875z" fill="#b1e4f9"/></g><g><path d="m199.805 275.33h-79.09c-4.268 0-7.726 3.459-7.726 7.726v58.277c0 4.267 3.459 7.726 7.726 7.726h79.09c4.268 0 7.726-3.459 7.726-7.726v-58.277c0-4.266-3.459-7.726-7.726-7.726z" fill="#b1e4f9"/></g><g><path d="m199.805 382.134h-10.406c-4.143 0-7.5-3.358-7.5-7.5s3.357-7.5 7.5-7.5h10.406c4.143 0 7.5 3.358 7.5 7.5s-3.358 7.5-7.5 7.5z" fill="#ecc32e"/></g></g></svg>